/* XPM */
static char *_90b04d586d34120c3ba997f0b2b6aa8fv4FFnPcGPnBOaV3[] = {
/* columns rows colors chars-per-pixel */
"32 32 176 2 ",
"   c None",
".  c #150D1B",
"X  c #2D0431",
"o  c #370D37",
"O  c #2C1838",
"+  c #57131C",
"@  c #75161C",
"#  c #50221C",
"$  c #4F1C2B",
"%  c #5D1422",
"&  c #441735",
"*  c #6F1820",
"=  c #7A1021",
"-  c #7C1B37",
";  c #4F2D3A",
":  c #592732",
">  c #593539",
",  c #7D2F2B",
"<  c #7E3026",
"1  c #63283A",
"2  c #742535",
"3  c #71263B",
"4  c #7D3034",
"5  c #513C4D",
"6  c #78404B",
"7  c #5C416A",
"8  c #8D141C",
"9  c #87191F",
"0  c #8A1D1D",
"q  c #94121C",
"w  c #93191E",
"e  c #9C191F",
"r  c #9E201E",
"t  c #AB3114",
"y  c #8C1B23",
"u  c #9A1521",
"i  c #941E26",
"p  c #9B1C22",
"a  c #9C1C29",
"s  c #8E1E37",
"d  c #8D1E3E",
"f  c #AC1727",
"g  c #A71D23",
"h  c #A81E26",
"j  c #A0172D",
"k  c #A51B2E",
"l  c #A81F2B",
"z  c #AA132C",
"x  c #B21C2B",
"c  c #BB1B2D",
"v  c #8F2124",
"b  c #8A272C",
"n  c #882B2E",
"m  c #9A2027",
"M  c #952029",
"N  c #9C232B",
"B  c #91292B",
"V  c #8E2734",
"C  c #842837",
"Z  c #8A2934",
"A  c #85293A",
"S  c #812335",
"D  c #902330",
"F  c #9D2A33",
"G  c #91273D",
"H  c #90293F",
"J  c #90303C",
"K  c #9B3F3E",
"L  c #A32126",
"P  c #A92F26",
"I  c #A5232A",
"U  c #AB232C",
"Y  c #A22A2E",
"T  c #AB2A2B",
"R  c #B6252E",
"E  c #B42B2D",
"W  c #B32327",
"Q  c #B3342D",
"!  c #BA342C",
"~  c #AE2334",
"^  c #A62D33",
"/  c #A52D3D",
"(  c #AE2C3A",
")  c #A32436",
"_  c #B52530",
"`  c #B32B32",
"'  c #BB2E35",
"]  c #B42F3D",
"[  c #A3333C",
"{  c #AC333B",
"}  c #A4393D",
"|  c #B73135",
" . c #BB3433",
".. c #BC3A32",
"X. c #B4343C",
"o. c #BC3439",
"O. c #B6393A",
"+. c #BD3B39",
"@. c #EE0000",
"#. c #FD001A",
"$. c #FF2E10",
"%. c #C11827",
"&. c #C81F30",
"*. c #C42C35",
"=. c #C02F39",
"-. c #CA2B3A",
";. c #C23432",
":. c #C23B36",
">. c #C3373C",
",. c #CA343D",
"<. c #C43C3B",
"1. c #CA3E3C",
"2. c #D0333E",
"3. c #BD433A",
"4. c #BE4C3D",
"5. c #C3433D",
"6. c #CD423F",
"7. c #C54235",
"8. c #8C2D45",
"9. c #993A44",
"0. c #923443",
"q. c #A62242",
"w. c #A9224B",
"e. c #B92943",
"r. c #B02E4B",
"t. c #AD3146",
"y. c #A33844",
"u. c #A83D47",
"i. c #AA3E4C",
"p. c #B63145",
"a. c #BF3D41",
"s. c #A73A52",
"d. c #AC395B",
"f. c #C63242",
"g. c #C43C41",
"h. c #CA3A43",
"j. c #D63945",
"k. c #D83D45",
"l. c #D73E4D",
"z. c #CD3C55",
"x. c #8C464A",
"c. c #934042",
"v. c #9D4045",
"b. c #9B414A",
"n. c #815B52",
"m. c #915050",
"M. c #AB404C",
"N. c #A74E4D",
"B. c #BB4345",
"V. c #BC444C",
"C. c #BB4C4D",
"Z. c #B74C50",
"A. c #BE4850",
"S. c #BA4454",
"D. c #BB505C",
"F. c #BF5460",
"G. c #C44142",
"H. c #CC4443",
"J. c #C54B43",
"K. c #CB4B42",
"L. c #C7424D",
"P. c #CF4B4C",
"I. c #C75140",
"U. c #D1544A",
"Y. c #D45849",
"T. c #D05445",
"R. c #C14352",
"E. c #C34B53",
"W. c #CD4A55",
"Q. c #C94B5B",
"!. c #D55451",
"~. c #DF5A55",
"^. c #DC5659",
"/. c #DB5260",
"(. c #F97188",
"). c #0086DD",
/* pixels */
"                                                                ",
"                                                                ",
"                                                                ",
"                                                                ",
"                                                                ",
"                                                                ",
"                  + $ 1 5 ) L.g.A.Z.} { V.V.R./.%               ",
"                . $.U 7 ).^ g.R.S.F.M./ S.Q.R.z.q.              ",
"                r.t a e.3.>...,.H.G.g.h.j.l.p.@ 8.V             ",
"                & #.a _ | -.;.B.<.<.O.h.h.o.I ) s.[             ",
"            o     < ~ ` 3.W.H.7.6.<.5.!.g.g.o.( t.{             ",
"            X O   b `  .Q W.~.Y.6.! ..!.P.5.>._ a L             ",
"              ( - U ` &.e E 4.T.5.T.7.5.K...>.' m Y             ",
"              ~ B U I ^ W P ! 5.5.Y.K.:.<.<.^.W.{ {             ",
"                g U R  .! ! :.U.Y.J.K.7.<. .>.| { X.            ",
"              3 T ~ ,.6.Q ! <...7.J.I.3.K.H.T I ( X.            ",
"              d x T O.O.o.>.+.7...3.4.J.<.g.| U }               ",
"          : @.T k p L U ` >. . .1.:...|  .E ` ` w.              ",
"          > i.N./ i e L T o.;.;.6.6.5. .>.E W R L T             ",
"            d.9.K i u h I U E ;.>.k.j.*.' ' R W e.%.            ",
"              4 Z y u k k w e L E ,.;._ _ -.R f k               ",
"              G 0.D 8 q 8 8 w m p h e e p l F n                 ",
"              s S Z y y i y 0 8 l g q 0 v F K 6 8.              ",
"              ; A J y 9 M N N ^ ^ a p i j z / x.b.              ",
"                e.p.v.u.} , K E.C.V.B n * 2 6                   ",
"                # (.9.m./ j ( Q.D.y.) = S 2                     ",
"                                                                ",
"                                                                ",
"                                                                ",
"                                                                ",
"                                                                ",
"                                                                "
};
