/* XPM */
static char *_ebbaccd52ea46dec4bb648bfdbb882bnj7dahySqYw1DjsG[] = {
/* columns rows colors chars-per-pixel */
"64 53 221 2 ",
"   c None",
".  c #19171B",
"X  c #221B1A",
"o  c #3D161E",
"O  c #34261D",
"+  c #1C1A22",
"@  c #1B1A28",
"#  c #241B22",
"$  c #2A1D23",
"%  c #211E2A",
"&  c #2B1C2A",
"*  c #321A24",
"=  c #3A1C24",
"-  c #361E30",
";  c #1D2027",
":  c #2B2125",
">  c #2B262B",
",  c #262529",
"<  c #3B2423",
"1  c #32292C",
"2  c #37262B",
"3  c #3A3127",
"4  c #282738",
"5  c #372A39",
"6  c #2E333A",
"7  c #3A3637",
"8  c #42171C",
"9  c #541C1D",
"0  c #67191C",
"q  c #5D3B1E",
"w  c #45301E",
"e  c #643815",
"r  c #461B24",
"t  c #462B28",
"y  c #493625",
"u  c #57352B",
"i  c #472E32",
"p  c #443737",
"a  c #553638",
"s  c #562B2F",
"d  c #6F362E",
"f  c #5B491F",
"g  c #79481C",
"h  c #6C571F",
"j  c #594329",
"k  c #4A443B",
"l  c #554737",
"z  c #595C3E",
"x  c #52502D",
"c  c #674829",
"v  c #7A4E25",
"b  c #6B552C",
"n  c #79532A",
"m  c #624A39",
"M  c #65563A",
"N  c #755A3A",
"B  c #78463E",
"V  c #62643B",
"C  c #7C6735",
"Z  c #766924",
"A  c #2D2A46",
"S  c #2A2845",
"D  c #312D46",
"F  c #383847",
"G  c #322F51",
"H  c #3C355B",
"J  c #3A3656",
"K  c #2F3A45",
"L  c #3D3861",
"P  c #4A3C44",
"I  c #493A4E",
"U  c #433B64",
"Y  c #4A3F6C",
"T  c #4A3F73",
"R  c #3E424A",
"E  c #43464A",
"W  c #554548",
"Q  c #5B5444",
"!  c #484459",
"~  c #4C535B",
"^  c #585A58",
"/  c #664B49",
"(  c #675F46",
")  c #6A5754",
"_  c #675659",
"`  c #765A53",
"'  c #7D554B",
"]  c #5D645D",
"[  c #666446",
"{  c #786546",
"}  c #796856",
"|  c #737353",
" . c #49426A",
".. c #5B4E68",
"X. c #565C61",
"o. c #4C4675",
"O. c #534A74",
"+. c #524A7B",
"@. c #574B79",
"#. c #5C5179",
"$. c #665664",
"%. c #67577A",
"&. c #745F7F",
"*. c #566A6B",
"=. c #546A75",
"-. c #686A68",
";. c #656B74",
":. c #796972",
">. c #77797A",
",. c #6E716F",
"<. c #8A2C2E",
"1. c #854919",
"2. c #A05410",
"3. c #9A781D",
"4. c #9D7010",
"5. c #B9761B",
"6. c #A9701A",
"7. c #88562A",
"8. c #9A4E2E",
"9. c #876638",
"0. c #967030",
"q. c #A76E30",
"w. c #C26D13",
"e. c #815B51",
"r. c #905549",
"t. c #976847",
"y. c #976C54",
"u. c #967C57",
"i. c #8F714C",
"p. c #AA694A",
"a. c #925D60",
"s. c #8D716B",
"d. c #D27C7B",
"f. c #7E835C",
"g. c #798268",
"h. c #BB9615",
"j. c #9D8228",
"k. c #AF8B2E",
"l. c #C78B18",
"z. c #CE8A2B",
"x. c #E6B336",
"c. c #D79C25",
"v. c #968546",
"b. c #948E50",
"n. c #AA8B55",
"m. c #A8904F",
"M. c #A9A858",
"N. c #B0AF5B",
"B. c #888A79",
"V. c #978073",
"C. c #A5AE7A",
"Z. c #CB9D42",
"A. c #D0AE57",
"S. c #EEBA51",
"D. c #C39F7B",
"F. c #CAAC6A",
"G. c #CEAF71",
"H. c #EFC25A",
"J. c #EEC96F",
"K. c #584D84",
"L. c #575482",
"P. c #5B5286",
"I. c #5B598A",
"U. c #665886",
"Y. c #675995",
"T. c #715F9C",
"R. c #5D618D",
"E. c #5E6591",
"W. c #716389",
"Q. c #787E86",
"!. c #626894",
"~. c #756596",
"^. c #757D92",
"/. c #6D5FA5",
"(. c #7D6BAC",
"). c #7866A8",
"_. c #7C6BB3",
"`. c #7E6CB9",
"'. c #6F63A6",
"]. c #987F96",
"[. c #8C7493",
"{. c #846EA7",
"}. c #8C74AC",
"|. c #947AAD",
" X c #826CB3",
".X c #8C70B2",
"XX c #798784",
"oX c #9C9689",
"OX c #848998",
"+X c #9A8192",
"@X c #889895",
"#X c #898F8D",
"$X c #BA958C",
"%X c #AA8B9A",
"&X c #B89696",
"*X c #A8908E",
"=X c #9FA19C",
"-X c #A3A598",
";X c #B3BA8B",
":X c #9B8FA2",
">X c #B08CA1",
",X c #99A6A9",
"<X c #AFAEB2",
"1X c #DB958E",
"2X c #DD9692",
"3X c #DF9A95",
"4X c #DA8682",
"5X c #E69E9A",
"6X c #C0A185",
"7X c #E6A199",
"8X c #EAB89C",
"9X c #E8A8A5",
"0X c #F0B2AF",
"qX c #EEC19F",
"wX c #EEC4A7",
"eX c #F0C7AC",
"rX c #EFC4BB",
"tX c #F0CDB8",
"yX c #BFBFC0",
"uX c #C2C4C5",
"iX c #C9CED2",
/* pixels */
"                                                                                                                                ",
"                                                                                                                                ",
"                                                                                                                                ",
"                                                                                                                                ",
"                                                                                                                                ",
"                                                                                      4X                                        ",
"                                                            4 , X                     8X5X                                      ",
"                                                        p W W b b C C V               qX7X                                      ",
"                                                    < M ) _ ) { n.F.G.F.b.x           wX7X                                      ",
"                                                  y N ` _ _ _ %.+XV.s.u.m.b.x         eX2X                                      ",
"                                                  M ` _ $...#.)._.{.&X$X$XD.n.        eX1X                                      ",
"                                                7 ) _ ..O.K.Y.`.`._.}.%X$X$X$X{       eX1X                                      ",
"                                                P $.O.+.o.I.!.`.`./.Y.U.W.s.[.}       wX7X                                      ",
"                                                I O.+.E.I.T /.`.`.`._._._. X{.U.      wX7X                                      ",
"                                                O.+.I.E.R.K.Y.o. .@.K.P.K.P./.Y.      tX9X                                      ",
"                                                 .+.R.R.I.K.H U U.W.W.U.).).Y.U.I     tX3X                                      ",
"                                                U o.+.K.O.+.L D 5 P @.(. X XY.%...    tX2X                                      ",
"                                                G o.@.+.Y.+.K./ 4.4.j #.).W.W h 1     tX2X                                      ",
"                                                A U o.K.L.+.K.#.9.c.l.M T...3.j.      rX5X                                      ",
"                                              t 5 U U +.L.!.K.~.%.] $...{.U.} Q     d.rX5X                                      ",
"                                          d r.r.s U U H  .P.K.:X%X+X{.).%X].+Xs.    d.0X7X                                      ",
"                                      ! i <.<.0 9 5 T Y U U T [.&X%X.X_.).).%X}       0X3X                                      ",
"                                      uX<X=Xs.I 9 8 A H U Y  .#.%X}.`.`._._.+Xl       0X1X                                      ",
"                                    W <XuXuXiX>XF * * S J U Y Y ~. X_.).Y.(.$.        0X2X                                      ",
"                                  w d l ~ ~ ^ 7 6 , , , 4 H H U U.}.).P.~.U.        a.$Xa.                                      ",
"                                $ u 1.q.j >.;Xf.V Q *.6 * 4 J H %.|._._.).L         :.oX*X                                      ",
"                                < t q q.q.[ C.b.V ;.,X*.> 9 > A T T._._.P.          ,.| oX-.                                    ",
"                                X i W r.q.( ~ E ~ >.XXoX] < m z 5 J L H S           X.,.>.                                      ",
"                                  p a m t.` X.F X.XX#XB.C.z M.b.R -.F + :           4 ~ F                                       ",
"                                  : s W ` m 2 8 t E Q.@Xg.f.M.V R X.E : b N l > % 4 4 J F                                       ",
"                                    i P s a $ o 9 <.s ..^ M N.7 ; K 4 < 9.{ ` : J ! 4 H J                                       ",
"                                    % 2 t - 4 & = s r _ ;X| z ; ; . . O y y p # ! U.G ! !                                       ",
"                                      # 4 U Y.:.p 2 < ) } c y ,   . . X X X X . D L.G ! !                                       ",
"                                        H Y.|.$Xl e 2.1.g n 2.w                   D S F 7                                       ",
"                                        D /.}.&XW q N *.z 7.5.k.                      R 6                                       ",
"                                      6 J +.).%Xs.> p =.9.w.l.j.; 1                                                             ",
"                                      ~ ;.S H W } k 7 q n 5.l.C *.7 3                                                           ",
"                                      E E     4 R *.E c 7.6.k.r.OX:X#Xp                                                         ",
"                                              @ K 7 3 v 7.7.0.k.C #X=X-.1                                                       ",
"                                            2 3 3 n 7.t q.c.0.0.k.i.u.n.N.n.                                                    ",
"                                          i u B u j c   n z.S.v.u.A.J.S.H.x.Z                                                   ",
"                                        2 P / p.p.y       9.S.S.v.m.Z.z.6.j.V                                                   ",
"                                      2 i a s.y.y.t         u.S.0.h.5.g v } B.-.                                                ",
"                                    @ t 7 / e.e.'             j c 9.c f c ,.-XB.,                                               ",
"                                  # # < t a ` ` /             + 4 ^.OX>.^ -.>.k >                                               ",
"                                  > 1 # = < 2 s N c           + # F OX#X=X^ @ ,                                                 ",
"                                  X : $ % 7 ) r.p.u.          + , @ 4 XX>.,                                                     ",
"                                          4 p Q ` e.            + .                                                             ",
"                                                                                                                                ",
"                                                                                                                                ",
"                                                                                                                                ",
"                                                                                                                                ",
"                                                                                                                                "
};
