/* XPM */
static char *_6dafe5de88d48f9a7f29ba19eec74e79vZX0xiO0WAcRZam[] = {
/* columns rows colors chars-per-pixel */
"64 64 121 2 ",
"   c #000106",
".  c #02010C",
"X  c #09080E",
"o  c #030214",
"O  c #080714",
"+  c #070915",
"@  c #0A0A15",
"#  c #04011C",
"$  c #05021D",
"%  c #04011E",
"&  c #05021F",
"*  c #06031E",
"=  c #02041D",
"-  c #03051E",
";  c #04041C",
":  c #05051D",
">  c #06041C",
",  c #07051D",
"<  c #04041E",
"1  c #05051F",
"2  c #04061F",
"3  c #06061E",
"4  c #07071F",
"5  c #03021B",
"6  c #090619",
"7  c #080719",
"8  c #08061B",
"9  c #09051C",
"0  c #08061C",
"q  c #09071C",
"w  c #09071D",
"e  c #08061E",
"r  c #09071F",
"t  c #08061B",
"y  c #080A19",
"u  c #09081A",
"i  c #0A081D",
"p  c #0B091E",
"a  c #090A1F",
"s  c #0C091C",
"d  c #0C0B1D",
"f  c #0C0A1F",
"g  c #0D0C1C",
"h  c #0A091B",
"j  c #10131A",
"k  c #15141C",
"l  c #010020",
"z  c #000120",
"x  c #030020",
"c  c #020120",
"v  c #020121",
"b  c #010220",
"n  c #010221",
"m  c #030221",
"M  c #020321",
"N  c #010022",
"B  c #020123",
"V  c #030222",
"C  c #020322",
"Z  c #050221",
"A  c #060320",
"S  c #050122",
"D  c #040322",
"F  c #040323",
"G  c #060322",
"H  c #030420",
"J  c #030422",
"K  c #030423",
"L  c #040420",
"P  c #050521",
"I  c #060620",
"U  c #070721",
"Y  c #050423",
"T  c #040523",
"R  c #070423",
"E  c #060622",
"W  c #070723",
"Q  c #030224",
"!  c #050424",
"~  c #060524",
"^  c #060525",
"/  c #050624",
"(  c #070625",
")  c #060725",
"_  c #040421",
"`  c #080520",
"'  c #080524",
"]  c #080425",
"[  c #080726",
"{  c #080726",
"}  c #050827",
"|  c #070B26",
" . c #080820",
".. c #090921",
"X. c #0A0820",
"o. c #0B0B23",
"O. c #0C0A20",
"+. c #080824",
"@. c #090925",
"#. c #0B0825",
"$. c #090827",
"%. c #0C0924",
"&. c #0F0D25",
"*. c #0B0B23",
"=. c #090F29",
"-. c #0D0C2B",
";. c #0C0F2E",
":. c #100F21",
">. c #110F24",
",. c #111020",
"<. c #181725",
"1. c #191722",
"2. c #1C1922",
"3. c #10122B",
"4. c #141228",
"5. c #121429",
"6. c #1A182E",
"7. c #161330",
"8. c #161630",
"9. c #1E1C31",
"0. c #1D1D35",
/* pixels */
"= = R v v ! = v 8.! Q } = v v = = = 5 o > 5 o O o . o . o . O 6 o o y o o 5 o o 5 o 5 = = = v R R = = 5 o > 5 o o o o 5 o 5 5 5 ",
"v = R R = v ] v 0.! v ;.v v v v v = 5 5 5 6 5 5 o o o o o o . . + o o 5 5 6 5 o o o = = = = = v - = = 5 5 o o o o o 6 o 5 5 5 = ",
"= = G R v v v v = G G & G v v R G - v = 5 5 o o 9 o o o o o o 5 o ; o o o 5 5 5 5 5 5 5 = G > = & G 5 5 5 o o o o 9 + o 5 5 5 & ",
"= 5 = - v = = = = G v = v v = =.! v ! = = = 9 5 o 5 5 o o 9.o o & o o 5 > G 5 o = 5 > 5 = 5 = = 5 = o 5 5 o o o o o o o o o 5 6 ",
"5 o 5 v 5 5 5 = = R = ! G R v v v J R v & = ..- 9 5 5 o 5 6.5 o o 5 5 5 5 = & > = 5 = & = 5 5 5 o 5 o 5 5 5 o 5 o o o o o o 5 o ",
"o 5 5 o 5 5 5 5 = = = v v ! ! ! $.! = v R v G R = 5 5 5 5 o 5 5 5 = 5 - - = - & 5 5 = 5 5 o o & 5 5 U 6 5 o o o . o o o o o 5 5 ",
"5 5 5 5 5 5 o 5 5 5 > = v J J v v v v ! ! = = G R R = = 5 = 5 5 5 5 5 > = = > 5 5 5 5 o 5 o o o + o >.> o o 5 o o o o o 6 o o o ",
"o o o 5 5 o > o 5 5 > - v ! v J v v v ! = v ] v = G = 5 = 5 = = 5 5 R = > = > 6 o o 5 6 5 o o o o o . o 5 o o o o o o o o * o 5 ",
"5 o o 5 5 - 6 5 o 5 & 5 = G ! ! v ! J v v v v v v = 5 5 R & 5 5 5 = = 5 5 5 5 5 o o o o o o o o o o o o . o 5 o . o 5 o o 9 o o ",
"o o 5 o o o o p 5 5 & = = = G v K v v v ! v v = ! = 5 5 5 = 5 * 5 5 5 5 o 6 6 o 5 o o o o . O . . . o O o o o o o o 5 o 5 5 o 5 ",
"5 9 o 5 5 o %.5 o 5 = = - } R v v = 3.R R v ! G ! = & 5 o = o * 9 5 o 5 o 5 o o o . o . . o + o o . . o o o o o o o o 5 o > > o ",
"5 o o 5 o 5 4.5 o = = = = R R v Q = | v J = $.- = 5 5 & o 5 5 o > 5 o o . o o o o o o . . o . . . . o O o . o o o o o o o o 5 o ",
"9 5 5 5 = o o 5 5 - R = ] G v v v R = R = G v = = = = 5 5 5 o > o 6 o o o o o + . . . . . . . . . . . . . O O o + . o o 9 o o * ",
"5 o o & = 5 = = 5 5 J - ..! = v G G = v = = = = = 5 & o o o > o o o o O 6 . . . 6 <.. . o . . . . o . . o o . . o o o . o + 6 9 ",
"o o 5 & 5 = R = = = v R v v v v v v = 5 R 4.5 5 5 5 5 o o 5 6 o . o O o . + . . . . . o . . . o o . o O . . . . . . o o . o 6 5 ",
"5 5 o 5 5 v = - v G v G v = R v = = = 5 = ; 5 o = > 5 o o 9 o o o o o . o . 6 . O . . . . . o . . . . . o . . . o . . o o . o o ",
"o 5 o & & = = = = G ! v R ! v G v v 5 = 5 o = 5 5 = 5 5 o o o o o . o O o . . . o O . X . X . . . . . . O . O . O . . + o o o . ",
"o 5 5 5 6 = v v v R G G v = ! v R R = = 5 5 5 5 o 5 o 5 o 5 o o o o . . . o . o . . . . . . . . . . . . . o . . . o o . . o . o ",
"o o o 5 5 = = G ! G v v v = v v = v = = > 5 > o 5 5 5 o 5 5 o o . o o o . . . . . . . . . . . . X X O . o . . . . . . . . . o o ",
"o o 5 5 = = J R = v v v v v = Q v v v = R o & 5 5 5 6 5 o 5 o 5 o o . . O o . . . . . . . . . . . . . . . . . . O . o . . o . o ",
"o > 6 5 5 = v G = = v v v ! v v v v J R J 5 5 5 o > > 5 5 o 5 o o 6 o o . + . . o . . . O .   k @ X . X . . o . . . o . o . o o ",
"o + > > 5 = R v R R v = J J ! v v v = ! U = 5 5 5 5 5 5 5 5 5 o o 6 o . o . o O . . . o . . . . . . o . . o . . o o . o o o + o ",
"5 o 9 > R = J v ! v ! ! v J v ! ! v R ! v R 5 o = 5 ; > & ; 5 5 o 5 4 o o . . . O . . O . . O . . O . . o . . . O . o 6 + o o 5 ",
"5 5 & = - v ! = ! J R K v G v -.! v ! ! v Q = 5 5 ; - 5 5 - p & 5 5 o o o o . o O . . . . . . o . o . . O . O o o o o o o o 6 o ",
"9 - > - = v v = v v v ! ! - Q ! R J R v G v R 5 5 5 o 5 5 5 = = 6 5 5 o + o o . . . . . . . . . . . . . . o o o o o 5 o 5 o f 9 ",
"o 4 & = = v v v v v G v J J J G v v = J ! v R R 5 5 5 5 5 5 5 = > 5 o 5 o o + O o . o . . . . . O o . O . o . o 6 5 5 o o 5 o 5 ",
"5 & - = v ! v R ! v v v v R J ! v v v v G G v v 5 5 > 5 5 5 5 5 5 5 = 5 > o o + o . . . o . . . O O . . o + o o 5 o 5 5 5 5 5 & ",
"= G = v v = v v Q ! $.v v v R ! v J v v = v 7.G = 5 5 5 5 5 = = J 5 > > 9 5 o o + o . . . o o . . . 6 o o o 5 5 o 5 = = 5 R = & ",
"G v v ! v Q v v ! R ! R = v R R = v ! v v = = = 5 5 o > o 5 5 > 5 = 5 = o o 9 9 o . . . . . o o . o O o o o o o 5 5 = = J = = G ",
"v G = R J Q G Q v v v ! R v J ! ! v v v ! G = 5 ..o 5 5 o 5 5 5 5 v 5 5 5 9 o + o o o o + O o . o o o o o 5 5 = 5 = = = = = = G ",
"= K v v G = v G v = v v ! ! v v G v v v = = = > 9 5 5 o 5 5 9 5 5 = > = 5 9 o o 5 o o o o o + o o . . o o o o 5 5 > v = = = = v ",
"= ! ! R v J v v = Q ] v = v > v v 5 = = = = 5 5 5 o o o o o 5 o 5 5 = > 5 o 5 5 o o ; o o o o . &.p o o o & = 5 = = = = v 5 = 5 ",
"5 5 R G = v v v = G G = R > = 5 5 5 = = o 9 5 5 o 5 + o 5 o o > ; 5 5 5 ; 5 5 o o o 5 o 5 > > o :.9 o y 5 5 5 = = = = 5 5 = 5 5 ",
"5 > 6 = R 5 = 5 = = = = > 5 5 5 5 5 5 5 5 5 o o o o o o o o o 5 o o o 5 o 5 5 o 5 o o 5 o > o o o o 9 5 o 5 5 > 5 = 5 5 5 5 5 o ",
"5 p 9 o 5 5 5 5 5 5 5 o ..o 5 5 o 5 o o o 6 o o o o o o o o o o o o 5 = o o 5 o 5 o o 5 o o 5 5 5 o o 5 5 5 = 5 5 5 5 5 o 5 5 o ",
"o o 5 5 o p 5 5 o 5 5 5 o o o 5 o 5 o o o o o o 6 . o . o . . o o o o o 5 5 o o 5 5 6 o 5 > 5 5 5 5 = ..= 5 5 5 5 5 o o 5 ` o o ",
"o o o o o 6 o o 5 o 5 o o o . 6 @ o . o o o O . . o . . . . o o o + o . o o . o o 6 5 5 o 5 5 5 5 = R - 5 = = 5 5 5 o o o o + o ",
"6 o o . o o o 5 + o o 9 o o o . . o o . . . . . . O . . . O . o o . O o o o o o . o o o 5 = 5 = = 5 = > = 5 o 5 o o 5 o o o o . ",
"O o . . + o . . o O . O . . . o + . . . . O . o . . o O . . o . . . . o O o . o o O o 5 o 5 o = 5 v = G R = 5 o 5 o o o . o . o ",
". . o . . . o . O . . . o . . X . . O . . . . . . . . . . . @ O . . . o . . . . o o o o o 9 5 & = R R - 5 6 6 5 o + 6 . o . o . ",
". . o . . . . . . . . . O . . . . o . . . . . .   . .   . . . X O . . . . . o . . o o o o & 5 = 5 5 $.> o > 5 o o o o . o . . o ",
"o . . . o . . o . X . . . . .     .   . . . . X   . . .     . . . . o . . . . o o . o o o 5 5 > = > 5 5 o > > 5 o o o o . O O . ",
". . o . . . . . X   . . . .   . . . . .       . . .   . .   . .   . . . o . . . o o o o o 5 5 5 = = 5 = 5 5 o o o o + . . o . . ",
". . @ @ X . . . . . . . . . . .             .     .       . .   . . . . . . . o . o o o o 5 5 = = = = 5 o > 5 o o o o . o . o . ",
". . . o . . . . . . . .       . .   .   . .               . . . X . @ @ . . o . o . o o 5 o = = = = = 5 5 6 o 5 o o o . . o . . ",
". . . . . . . .   . .   .   .       .     . .   . . .   X .       . .   . . . . . o 5 o 5 ; = > = 5 5 5 5 5 5 o 5 o o o o . . . ",
"o . . . . .   . .   .       .   .   X     . .         . j   . . . . . . . . . O + o ; 5 o p = 5 5 5 > 5 5 o o o o o o o O o o . ",
"O O . O . X . . . . . X   .     .   .   .     .   .               . . . . . . o o 7 o 6 6 5 > o o 5 o o 5 5 o 5 o 5 o o o o . O ",
". . . . . . . . . . .       .             .   . .   .     .   . . . . . . . . o o o o > 9 5 5 o 5 o o o o 5 5 5 + o o o o . o o ",
"o O . o o . . . .   . . .     . .   . .   .           X .     .   . . . . O o . o o o 5 o o 5 9 5 o 5 5 5 o o o o 5 o o 5 6 + o ",
". o o . . . . . . . . .   . .   .     .   .       . . X   .   . . . O . . . . o o o 5 o 5 5 5 o 9 o o o o . o o > o o o o o o o ",
"o o + . . O . . . . . . .   .       .   .   .   .           . . . . o . . o o o 5 5 o 5 o 9 o o o . . o o o o . o o o 5 > o o o ",
"o o o o o o . O . . . o X . .       . . X .   . .   .   . . . . . . . o O O . 5 o 5 5 > > o o o + o 7 o . o o o o o o o + o o 5 ",
"5 o o 5 o . o 6 O o . . . . . . . .                   .     . . . . . . o o o o o o o o o 9 o o o o o . o . o o o . o o o 5 9 o ",
"o o 5 > o o o o o . . . o . . . . . .       k .     .   X 2.. . . . . o . o o > o > 5 o 5 o o . o o o o o + o o o o o o o o 5 9 ",
"5 o 6 o 5 5 o o o o . o . o . X . O . . . . @   . .     O k X X . @ o . o . o 5 o 5 * 5 5 o 5 5 o o o o o o o o o . o o O 6 o y ",
"o o o 5 > 5 > o o o o o . . . . . o O . . .   .     . . .   O . . y o . o o o 5 5 5 6 5 o o o 5 > o 5 o o o o o o 5 o o o o 5 o ",
"6 9 & o 5 o 5 5 5 o o o o o . o . . . . . . . . . . . . . . O O o . o o . o + o ..9 o 5 5 5 5 o o o > > 5 5 o o 9 o o 5 o 5 5 o ",
"> 5 5 5 5 5 5 5 o 5 9 + o o o o . o O . O . . . . . . . . . . . . o . . o o 5 5 o > 5 5 5 5 5 > 5 5 o o 5 > 5 o o o o o > 6 6 o ",
"o 5 o 5 5 5 = = 5 & o 9 9 o + o o . o . . . O . . . . . o X O . . o O . o o o o o 5 5 5 5 = 5 5 5 5 5 5 5 o 5 o o 5 9 5 :.o 5 5 ",
"5 5 - = > R - = 5 5 = o > 9 6 o o o o . . o . . . o . . . + o O o . o . . o o o o 5 9 5 5 5 = = = 5 ....5 o 5 o o o 9 5 o 5 o 5 ",
"5 = 5 = v - = = = = R & - > 5 5 5 o o o o . . o . . . o . . . . o . o o o o o o o 5 & 5 J v G = = & = 5 * o > o 5 5 o o 5 5 5 = ",
"= = = = v ] = v v = v = = 5 = 5 5 o o o o O . . . . . O . o . o o . . o o o o 5 o 5 o 5 = v = v G v 5 = 5 > 5 5 o 5 5 o 5 - & 5 ",
"= = v v G v v v v v = R v v 5 = - & o 6 o o o o . o . o . o . . O o 6 o o o o 5 o 5 5 = 5 = v = & = = 5 o o 9 o 5 o 5 o o o 5 5 "
};
