/* XPM */
static char *_d2031b20b894433dfa4a1ecbf233a0firA9UHA5lwBSYOtY[] = {
/* columns rows colors chars-per-pixel */
"64 64 244 2 ",
"   c None",
".  c #0B0B0D",
"X  c #080506",
"o  c #130B0C",
"O  c #180A07",
"+  c #18120C",
"@  c #171718",
"#  c #111313",
"$  c #260D06",
"%  c #23140D",
"&  c #2C140A",
"*  c #3A160A",
"=  c #331508",
"-  c #271917",
";  c #3C1B12",
":  c #311A16",
">  c #1D201E",
",  c #2A2318",
"<  c #38271A",
"1  c #181D23",
"2  c #281E22",
"3  c #1B2621",
"4  c #2C2A24",
"5  c #272627",
"6  c #342822",
"7  c #373229",
"8  c #343534",
"9  c #2F2C31",
"0  c #451A0B",
"q  c #4B1B0B",
"w  c #581D0B",
"e  c #441C11",
"r  c #5A230B",
"t  c #482517",
"y  c #592614",
"u  c #522A14",
"i  c #67260C",
"p  c #742C0D",
"a  c #7A2C0C",
"s  c #7A2A0A",
"d  c #662714",
"f  c #782B15",
"g  c #68381C",
"h  c #783516",
"j  c #7B310F",
"k  c #4B2C24",
"l  c #49362B",
"z  c #533323",
"x  c #5A3B29",
"c  c #433A38",
"v  c #523832",
"b  c #653825",
"n  c #763D26",
"m  c #632F21",
"M  c #3A403E",
"N  c #554438",
"B  c #47453F",
"V  c #694429",
"C  c #785339",
"Z  c #704835",
"A  c #7D4119",
"S  c #3F3C41",
"D  c #413B41",
"F  c #474848",
"G  c #4B544B",
"H  c #59564E",
"J  c #534F54",
"K  c #4E5555",
"L  c #575958",
"P  c #5A4E43",
"I  c #635759",
"U  c #69534A",
"Y  c #5B605B",
"T  c #726653",
"R  c #575E62",
"E  c #696565",
"W  c #766B63",
"Q  c #75746F",
"!  c #882E0A",
"~  c #87330D",
"^  c #94330C",
"/  c #9F380F",
"(  c #852D11",
")  c #883516",
"_  c #963A15",
"`  c #A33A0C",
"'  c #AB3C0C",
"]  c #A83908",
"[  c #B43E0D",
"{  c #B43C04",
"}  c #A43A11",
"|  c #A83D15",
" . c #B23E13",
".. c #853E26",
"X. c #974418",
"o. c #AE420C",
"O. c #A6430D",
"+. c #B5440D",
"@. c #BB450E",
"#. c #BC490D",
"$. c #B64609",
"%. c #AC4312",
"&. c #A4471B",
"*. c #B54412",
"=. c #BB4611",
"-. c #B54912",
";. c #BC4912",
":. c #B6481B",
">. c #B75F1C",
",. c #844728",
"<. c #9A4726",
"1. c #9B5628",
"2. c #965836",
"3. c #8A5234",
"4. c #A94A23",
"5. c #B94923",
"6. c #AA5627",
"7. c #B45425",
"8. c #9A643A",
"9. c #BB6627",
"0. c #AB6C38",
"q. c #C3460D",
"w. c #C34A0E",
"e. c #CB4C0E",
"r. c #D34D0E",
"t. c #CA530D",
"y. c #D5520F",
"u. c #DA570E",
"i. c #C44C12",
"p. c #CB4D12",
"a. c #C64916",
"s. c #D24D14",
"d. c #D84E1C",
"f. c #CC5113",
"g. c #CD521B",
"h. c #C45616",
"j. c #D35213",
"k. c #DB5515",
"l. c #DD5915",
"z. c #D3531B",
"x. c #DC551A",
"c. c #DB591A",
"v. c #D65C10",
"b. c #E6580C",
"n. c #E35B14",
"m. c #EA5C15",
"M. c #E45B1A",
"N. c #EB5D1A",
"B. c #E45617",
"V. c #F25E15",
"C. c #F25D1B",
"Z. c #EA5413",
"A. c #DA621A",
"S. c #ED6217",
"D. c #E5621C",
"F. c #ED621A",
"G. c #E86A1B",
"H. c #F26215",
"J. c #F3651B",
"K. c #FA651C",
"L. c #F56A1C",
"P. c #FA6C1C",
"I. c #F66B16",
"U. c #FB721E",
"Y. c #F9751B",
"T. c #E1701C",
"R. c #D15B26",
"E. c #E85A21",
"W. c #CD6B2A",
"Q. c #DA6627",
"!. c #D9722A",
"~. c #CE7036",
"^. c #EA6825",
"/. c #F56D22",
"(. c #FA6C23",
"). c #F76622",
"_. c #ED7728",
"`. c #FB7422",
"'. c #FB7B24",
"]. c #FA742A",
"[. c #F57B2B",
"{. c #FB7C29",
"}. c #F57425",
"|. c #F97B31",
" X c #EA7532",
".X c #966948",
"XX c #99785A",
"oX c #886F5E",
"OX c #A1694A",
"+X c #A97852",
"@X c #B57444",
"#X c #89796F",
"$X c #A07F6F",
"%X c #D07843",
"&X c #FA801F",
"*X c #FC8324",
"=X c #FC8C25",
"-X c #FB842B",
";X c #FB8B2C",
":X c #F5852B",
">X c #FB912C",
",X c #F6952C",
"<X c #E68536",
"1X c #FA8431",
"2X c #FA8C34",
"3X c #F78A36",
"4X c #FB9433",
"5X c #FB9934",
"6X c #F6933C",
"7X c #FA943B",
"8X c #FB9D3B",
"9X c #F69739",
"0X c #F7A138",
"qX c #928876",
"wX c #A7886F",
"eX c #B9895A",
"rX c #D58945",
"tX c #D18D54",
"yX c #FA9341",
"uX c #FA9B44",
"iX c #F89A47",
"pX c #EC924B",
"aX c #FBA443",
"sX c #FAA44C",
"dX c #F7A74D",
"fX c #EAA258",
"gX c #FAAB53",
"hX c #F6A855",
"jX c #F6B35C",
"kX c #FAB45C",
"lX c #F8B254",
"zX c #EEA049",
"xX c #D6AE73",
"cX c #F9BA63",
"vX c #F6B662",
"bX c #EAAF70",
"nX c #C39F6E",
"mX c #F9C269",
"MX c #F6CD73",
"NX c #F9C873",
"BX c #F9D378",
"VX c #978B8B",
"CX c #F8D884",
"ZX c #F8E48C",
/* pixels */
"                                                                                                                                ",
"                                                                                                                                ",
"                                                                                                                                ",
"                                                    2X;X;X-X*X'.*X'.[.!.                                                        ",
"                                            9X4X3X;X=X&X-X-X-X-X-XY.Y.I.h % 4.`.}.                                              ",
"                                        :X=X:X;X=X=X;X2X-X=X=X*X-X-X'.P.^ 1 b Y.U./.K.).                                        ",
"                                    6.1.,.3.8.~.<X>X2X2X;X-X-X-X*X:XY.N.h 3 V Y.Y.U.K.K.K.J.                                    ",
"                                9X X!.W.>.1.V v U XXrXiX7X=X-X:XY.U.F.X.t 8 7.`.P.P.I.I.J.J.C.N.                                ",
"                              ;X=X>X4X>X=X>X:X!.1.N H $XxXhX5X:XY.k.^ l c 3.Y.'.P.P.L.I.).J.J.V.D.                              ",
"                            ;X=X>X>X>X4X5X5X4X>X-XT.1.P E wXbX_.O.z c v 2./.'.P.`.P.I.K.K.J.J.m.M.c.                            ",
"                        4X>X>X>X>X5X5X5X5X7X5X5X7X2X:XQ.3.L #X3.N F C 9.[.'.'.U.U.P.P.I.K.C.B.a. .~ p                           ",
"                      >X;X=X>X>X5X5X8X8X8X8X8X9X5X7X3XY.z.n L L Y OX X{.'.U.P.U.P.P.I.H.B.=.~ u : + o $                         ",
"                    4X=X,X>X4X5X8XaXaXaXaXaXaXsXsX2XP.;.,.H E Y Y qXpX1X}.U.(.P.P.I.M.=.h < 2 2 , g ) _ 5.                      ",
"                    =X>X4X4X5X8XaXaXaXlXgXgXgXhX6XA.<.U W T ~.Q.C H #XtX-X}.`.).C.p.h k 9 8 b &.z.S.V.D.v.j.                    ",
"                  2X;X>X>X5X0XaXlXlXkXcXmXcXfX!.7.C I W +X<X2X{.F.,.L W %X[.J.z._ z c M n 6.R.C.S.M.n.k.k.f.g.                  ",
"                2X2X4X>X5X8XaXgXlXlXhXpXrX@XOXoXQ W XX%X6X4X2X1X[.^.<.J T ~.q.g F F Z 6.^.J.J.N.M.M.l.k.j.f.f.;.                ",
"              2X=X;X,X,X4X2X:X!.9.0.+XwXVXVXVX#X+XrXyXuXiX7X;X|.*XY.G.<.J I x F I 1.^.K.J.J.F.M.n.b.l.l.j.j.f.p.                ",
"              ;X,X=X'.G.h.1.3.oXQ VXVXqXwXeXtXzXkXdXlX8X8X6X7X1X[.`.D.%.v J L oXW./.P.I.F.F.N.M.M.M.l.l.z.j.j.i.#.              ",
"            ;X;X&XA.&.V P Y W oX+XeXrXfXvXBXBXBXmXcXhXiX9X6X3X|.(.x.) N J H J U Q.).L.G.J.N.N.N.M.M.c.x.k.j.f.i.#.-.            ",
"            Y.^.&.z B P .X0.rXzXlXmXBXZXZXZXCXBXmXjXkXiXuX3X|.(.;.n B P T 9...F Z ^.F.F.N.V.m.M.c.j.t.y.s.s.t.w.w.;.            ",
"          :Xl.h l Z 0.<X7XuXlXcXBXBXCXCXCXCXBXNXcXcXhXhX3X-X^.4.x H E .X^.P.j.b F 3.c.J.m.n.y.q. .` } |  .@.w.w.w.#.5.          ",
"          A.b l 6._.9X9X8XsXgXkXcXcXBXCXBXMXNXNXvXkXdXyX3Xc.) F R W %X/.P./.K.i.z S <.n.l.a.` i 0 & % & q s } -.#.$.-.          ",
"        ^.) V W.2X4X;X2X9XuXsXkXvXmXcXNXNXcXcXvXvXhX6X'.a.n J E XXrX].P.P.).K.M.&.l c &.w.p * + > 1 : - @ . & ( O.-.$.          ",
"        <.V !.=X:X;X;X4X5XuXsXsXjXjXvXvXvXvXvXvXiXyX_.:.b K Q eXpX[.U.L.K.J.).C.B.) 8 l y - 3 5 g &.a.=.} d % O i ' $.-.        ",
"        ..W.-X*X*X-X;X2X2X7XuXuXdXdXjXhXkXhXhXiXyXJ.&.v L #XwXiX].(.I.K.L.G.H.F.s.+.k 9 5 4 z 4.Z.u.e.r.e.a.} w o q o.@.        ",
"        >.&X:X-X-X*X-X;X-X7X4XuXuXiXsXsXsXiXsXyXQ._ l R VXxXgX{.`.).L.J.L.H.N.p.} i : 9 9 z z.Z.d.t.p.p.w.w.$.*.f O q *.        ",
"        _.Y.&X'.{.*X-X-X1X1X2X7X7XyXyXuXyXiX1XA.) N R qXxXiX|.].).K.J.J.S.N.s.^ t > 9 7 4 <  .k.d.p.w.w.w.@.*.=.q.( $ y 5.      ",
"      3X'.{.'.U.'.-X'.-X-X-X1X-X2X3XyX3X3X1Xc.j 8 Y VXbXyX|./.(.L.L./.F.N.s.^ ; , 9 V g.d 1 y a.a.q.i.i.=.=.q.=.+.*.~ = )       ",
"      [.'.'.`.'.'.{.{.{.'.*X-X1X1X2X2X1X].z.f 7 K wXbX6X/./.).L.L.J.L.F.l.` e 1 7 3.!.N.[ , - ) q.w.w.q.=.;.*.+.+.@.*.p q       ",
"      '.U.'.'.'.'.'.'.'.'.'.{.[.{.-X'.].g.d 7 J qXfXyX}.(.).).(.J.J.F.D.@.w 1 9 8._.Z.u.p.a + < +.w.i.=.#.-.@.+.@.*.*.+.f       ",
"      U.U.'.`.'.U.'.U.`.'.'.[.'.{.'.].p.d 4 F XXfX:X`.(.(./.J.J.K.J.F.z.! % , 8. Xn.x.f.g.*.0 # f ;.#.#.#.+.+.*.+.*.=.i.4.      ",
"      U.U.`.U.`.U.'.'.`.`.`.'.'.'.L.p.y 4 c .XyX|.`./././.L.J.J.F.J.F.*.0 1 V rXM.l.z.s.p.a.( @ ; ' #.#.+.+.-.+.#.@.a.:.a.      ",
"      I.`.`.`.`.U.(.`.`.`.`.`.Y.`.j.i > 8 2.3X].(././.L.F.K.J.F.F.V.c.^ @ 4 9.E.c.j.f.g.f.i. .e # s @.$.*.*.$.+.*.w.@.q.i.      ",
"      U.P.`.(.`.(.`.(.U.(.U.P.L.z.i @ 9 C  X].(././.J.L./.F.J.N.N.m.w.i # z ~.c.f.j.f.p.i.i.=.) O ; ' $.$.*.#.+.=.@.=.w.i.      ",
"      P.P.U.`.P.P.`.U.(.P.U.L.x.p + 3 Z  X}.L.L.L.J.J.J.J.J.N.S.M.l.o.; @ ) E.k.g.f.e.f.i.w.w. .0 o a +.$.+.@.#.;.q.q.q.f.      ",
"      U.P.K.P.P.P.P.P.P.K.L.M.( + 1 b ^.P.^.L.J.J.L.J.F.F.N.m.n.B.j.` % > :.n.s.p.f.e.i.f.h.w.q.f O e } +.-.=.$.=.i.i.i.f.      ",
"      L.K.P.K.P.K.(.P.(./.m.^ & 1 u Q.].I.L.^.J.F.F.F.F.F.N.n.M.x.p.^ # - g.j.f.p.i.f.i.i.#.;.=.} = O ! [ ;.@.@.@.w.i.i.i.      ",
"        /.I.K.P.P.(.K.I.M.O.* + < W.).).J.F.F.N.F.F.D.F.M.n.M.c.k.q.f . ; z.f.j.f.i.i.a.a.#.:.;.+.d X w { @.q.@.w.w.w.p.        ",
"        F.H.J.J.K.K.).H.q.e @ , :.L.C.).N.S.N.S.S.n.S.l.n.n.l.l.s.@.w . y b.s.p.a.i.w.w.;.;.-.%.$._ O = ] q.@.q.w.w.w.f.        ",
"        N.F.J.J.F.J.C.s.i @ 3 X.K.H.m.N.S.N.S.N.N.n.n.n.l.l.c.j.f.[ * . ( B.p.e.i.w.#.;.;.+.*.*.@.+.0 O ! [ w.w.w.i.w.f.        ",
"        H.F.N.F.J.F.y.( - @ g H.H.G.N.m.N.S.n.m.B.M.B.l.u.u.j.j.w.' $ . _ x.a.w.e.w.#.#.#.*.+.=.;.@.s X d [ w.q.w.i.i.f.        ",
"          D.m.N.S.n.{ e , z R.C.N.M.M.n.n.n.M.n.l.M.k.k.k.j.j.j.w.^ O + *.j.i.#.;.;.;.+.+.+.-.@.*.@.] O 0  .q.w.e.a.f.          ",
"          n.n.N.Z.w.i 1 6 7.J.N.m.M.n.n.l.n.n.l.l.k.k.j.j.j.p.p.@.s O & i.e.#.;.;.*.+.+.#.*.+.;.=.q.=.* $ ` q.q.w.f.g.          ",
"          v.l.m.x.^ : 5 h N.Z.m.M.B.l.l.k.k.k.l.c.j.j.y.r.e.p.i.{ i X q p.i.#.@.*.@.*.+.*.+.;.@.=.i.q.w O ^ q.p.w.t.g.          ",
"            l.l.=.y 5 z z.m.B.x.l.l.k.c.k.l.k.s.k.j.p.j.e.p.p.q.[ 0 X d e.@.@.*.=.+.+.*.*.#.;.;.=.;.i.( o ( q.a.g.j.            ",
"            k.t./ ; 4 _ E.u.k.c.k.k.j.j.s.j.j.s.s.p.p.p.e.w.i.@.` $ X ~ w.@.+.=.=.+.+.@.;.;.;.#.i.i.i./ o p q.s.s.f.            ",
"              w.p 4 z g.B.r.j.r.j.j.j.j.j.r.s.p.p.p.q.p.q.i.i.[ ^ O O / i.+.+.+.+.@.;.+.;.;.w.w.i.i.i.| % i q.s.y.              ",
"              :.d 5 ) k.r.p.j.p.y.s.f.p.p.p.p.e.p.i.w.w.q.=.*.[ s X $  .+.+.+.=.*.@.;.;.;.@.w.w.w.i.p.*.& i e.r.j.              ",
"                y 6 :.s.w.p.e.e.p.p.p.w.p.p.i.p.q.q.;.@.q.=.=.[ w X q #.+.;.@.*.*.=.*.i.;.i.w.w.w.i.t.=.; p i.s.                ",
"                  e ;.p.w.w.w.w.w.w.q.q.w.w.q.w.i.@.@.@.+.+.+.' = X r $.+.+.+.-.;.=.q.=.;.i.i.f.i.i.p.=.e ~ s.                  ",
"                    ;.q.*.;.w.i.q.i.@.#.@.#.;.@.@.+.#.+.+.+.[ ^ O . a $.+.-.#.#.w.w.w.#.i.w.w.i.p.i.j.%.t |                     ",
"                      *.#.@.*.@.@.+.#.#.+.+.+.+.$.$.o.o.+.+. .p o % ~ $.#.$.#.#.i.#.w.w.w.i.p.p.p.p.j.X.y a.                    ",
"                        o.+.+.+.+.$.+.o.o.o.+.o.+.{ o.+.[ o. .q X q / #.@.#.#.#.#.w.w.w.i.w.p.p.p.g.z.h h                       ",
"                          O.o.+.o.o.' o.o.o.' o.o.o.o.+.*.$.} % + p ' @.#.#.;.w.i.i.w.i.i.p.p.j.z.j.5.                          ",
"                            O.' ' o.o.{ o.o.o.o.+.%.+.+.*.=.a # - ^ $.q.w.w.i.i.p.w.p.i.p.f.f.j.g.z.                            ",
"                              %.o.o.o.o.o.$.[ +.+.+.+.+.#.*.t @ r ] $.#.q.i.w.w.p.w.h.p.p.s.j.k.k.                              ",
"                                  +.+.+.+.+.*.+.+.*.+.@.#._ : - j { w.;.p.w.p.f.p.p.f.t.f.d.z.                                  ",
"                                    *.@.@.+.-.+.+.+.@.@.=.y 2 t ` #.i.i.w.i.i.p.i.g.t.j.j.z.                                    ",
"                                        -.#.#.*.=.=.*.i.} < 4 ~ $.;.g.i.i.p.p.f.f.t.j.z.                                        ",
"                                              ;.a.q.=.*.y 3 r ' @.i.i.e.f.p.p.g.g.                                              ",
"                                                        - k _ -.p.e.p.t.s.                                                      ",
"                                                                                                                                ",
"                                                                                                                                ",
"                                                                                                                                "
};
