/* XPM */
static char *_a517efd5e0c49b2ff8cef2e436e7582mlWiYgC6AspI2tKE[] = {
/* columns rows colors chars-per-pixel */
"64 64 200 2 ",
"   c #493F56",
".  c #4B3E5C",
"X  c #4E3E63",
"o  c #503F66",
"O  c #513F68",
"+  c #444445",
"@  c #46424B",
"#  c #48424E",
"$  c #4A4A4A",
"%  c #50504F",
"&  c #4A4254",
"*  c #4D415C",
"=  c #545454",
"-  c #5A5B5B",
";  c #4F4062",
":  c #514167",
">  c #534D66",
",  c #55436B",
"<  c #58466E",
"1  c #564C6A",
"2  c #59496E",
"3  c #545365",
"4  c #565B66",
"5  c #565369",
"6  c #5B536E",
"7  c #5B5B6C",
"8  c #594770",
"9  c #5C4A73",
"0  c #5F4C78",
"q  c #5D5678",
"w  c #60586E",
"e  c #604F75",
"r  c #614E7A",
"t  c #615276",
"y  c #665B76",
"u  c #65527C",
"i  c #68577E",
"p  c #675979",
"a  c #6A5C7C",
"s  c #566264",
"d  c #5D6366",
"f  c #576D63",
"g  c #596C65",
"h  c #5D6669",
"j  c #5D686B",
"k  c #5B7166",
"l  c #5E7269",
"z  c #5E707B",
"x  c #616262",
"c  c #636174",
"v  c #686778",
"b  c #6D617D",
"n  c #716D7F",
"m  c #657374",
"M  c #6B7876",
"N  c #6A7D76",
"B  c #697679",
"V  c #69747A",
"C  c #75817F",
"Z  c #5C5381",
"A  c #575A87",
"S  c #5F5989",
"D  c #665381",
"F  c #6A5583",
"G  c #6D5A84",
"H  c #635B8C",
"J  c #6E5A8A",
"K  c #705F86",
"L  c #715C8D",
"P  c #675D90",
"I  c #755F92",
"U  c #5D7B8D",
"Y  c #556494",
"T  c #546798",
"R  c #536D9E",
"E  c #6E6081",
"W  c #736485",
"Q  c #776B86",
"!  c #796E86",
"~  c #75648A",
"^  c #78678E",
"/  c #776A89",
"(  c #7A6D8B",
")  c #677984",
"_  c #7A7087",
"`  c #7D728C",
"'  c #6D6195",
"]  c #766194",
"[  c #786296",
"{  c #736A93",
"}  c #7D6C93",
"|  c #73659B",
" . c #7C659B",
".. c #7D6C9A",
"X. c #7E7091",
"o. c #797498",
"O. c #526EA0",
"+. c #5272A4",
"@. c #7A69A0",
"#. c #81768F",
"$. c #82788F",
"%. c #806E97",
"&. c #80679F",
"*. c #80689F",
"=. c #827592",
"-. c #857A93",
";. c #887E96",
":. c #83719C",
">. c #877A98",
",. c #8A7E9A",
"<. c #8167A0",
"1. c #836AA2",
"2. c #896EA9",
"3. c #8676A2",
"4. c #8B71AC",
"5. c #5D859D",
"6. c #748280",
"7. c #6B8390",
"8. c #5987A4",
"9. c #4F83B7",
"0. c #5693B9",
"q. c #6595B3",
"w. c #4F8CC4",
"e. c #4C95C5",
"r. c #5E9BC2",
"t. c #5299C8",
"y. c #68A7CD",
"u. c #77B0D1",
"i. c #8A8197",
"p. c #8D829C",
"a. c #8F8A99",
"s. c #90869D",
"d. c #928A9E",
"f. c #949598",
"g. c #8F81A0",
"h. c #9185A2",
"j. c #968CA2",
"k. c #988DA6",
"l. c #9B8EAB",
"z. c #9B93A6",
"x. c #9E93AB",
"c. c #A297AF",
"v. c #A39BAC",
"b. c #A69BB3",
"n. c #AA9FB6",
"m. c #A7A6AB",
"M. c #ACACAF",
"N. c #A7A0B1",
"B. c #ACA4B5",
"V. c #AFAEB2",
"C. c #ADA3B9",
"Z. c #B1A7BD",
"A. c #B2ABBB",
"S. c #AFB0B2",
"D. c #B3B3B5",
"F. c #B6B4BB",
"G. c #B9B9BB",
"H. c #B5ADC0",
"J. c #BCB5C4",
"K. c #BEBAC4",
"L. c #BFB7C8",
"P. c #C1BCC7",
"I. c #C4BECC",
"U. c #C3C3C5",
"Y. c #C6C3CA",
"T. c #C9C5CE",
"R. c #C7C8C9",
"E. c #CBCBCD",
"W. c #CBC7D0",
"Q. c #CFCED1",
"!. c #D1CED6",
"~. c #D1D1D2",
"^. c #D5D5D6",
"/. c #D6D4D9",
"(. c #D9D7DB",
"). c #D7D8D9",
"_. c #D8D8D9",
"`. c #DCDBDD",
"'. c #DFE0DF",
"]. c #DFDDE1",
"[. c #E0DFE2",
"{. c #E4E3E5",
"}. c #E7E8E7",
"|. c #E7E6E9",
" X c #E8E7E9",
".X c #E9E9EA",
"XX c #EBEBEB",
"oX c #ECECEC",
"OX c #ECEDEC",
"+X c #EDEDED",
"@X c #EDEDEE",
"#X c #EEEEEE",
"$X c #EFEFEF",
"%X c #EFF0EF",
"&X c #F0F0EF",
"*X c #F1F1F1",
"=X c gray95",
"-X c #F3F3F3",
";X c #F5F5F5",
":X c #F8F8F8",
/* pixels */
"K.Q.^.Q.~.~.!.^.~._.R._.R._.R._.E.`.~.^.E.^.~.^.^.~.`.~.`.!.`.E.{.E._.E.^.E.^.Q.~.~.Q.^.E./.R._.R._.R._.E._.E.).Q.~.~.~./.E._.f.",
"U.;X+X&X+X*X*X+X*X+X*X+X;X+X-X+X*XXX;X+X*X+X*X*X;X*X+X;X$X*X*X/.!.;X+X&X+X*X&X&X$X$X*X$X*X+X*XXX;X+X;X+X*X+X-X+X*X*X$X*X+X*X$XG.",
"E.+X%X%X+X+X+X&X+X&X+X*XXX*X+X&XXX*X+X*X+X%X+X+X:X&X;X;X;X`.A.-.#.J.{.;X*X+X*X*X&X$X+X+X%X+X$X*XXX*X+X*X+X$X+X+X+X*X+X+X+X+X*XD.",
"R.%X+X%X+X+X+X+X+X+X%XXX+XXX&X+X*X+X+X+X+X*X+X;X;X+XOX XA.d.#.,.,.=.j.A.{.}.+X&X*X+X$X$X+X$X+X$X&X+X%XoX$X+X$X$X+X+X+X&X$X+X&XD.",
"R.*X+X*X+X+X+X$X+X*X&X+X+X+X+X%X+X*X+X%X$X+X+X+X+XP.k.k.-.p.h.h.,.p.=.#.d.-.K.].{.$X+X+X+X$X+X*X+X+X+X+X&X+X$X+X$X+X$X+X+X+X*XD.",
"R.&X+X&X+X+X$X+X+X+X+X+X+X&X+X+X+X+X+X+X+X+X*X(.v.-.,.h.h.p.( Q / ` p.-.-.=.=.=.p.].*X$X+X$X+X+X+X+X%X+X&X+X+X+X+X$X+X+X$X+X&XD.",
"R.*X+X+X*X+X%X&X&X+X+X$X+X+X*X+X%X+X*X+X*X(.F.s.>.k.h.>.W G 9 : : 9 E =.-.,.,.-./ d.A.|.*X+X$X+X*X+X*X+X+X+X&X$X$X+X+X$X+X&X+XD.",
"E.&X&X+X+X+X+X+X+X*X+X&X+X+X+X*XXX&XXX|.A.h.-.g.h.>.W t , O 9 t 9 , , 0 p / -.-.,.-.( k.P.XXXX+X+X+X+X+X+X$X$X+X$X+X$X+X$X+X*XD.",
"U.*XoX$X*X+X&X+X$X+X+X+X*XXX*X+X|.(.A.s.=.s.h.-./ 9 < < r u D G G u D r < 2 9 t ` ,.,.-.=.-.P.`.;X$X*XXX*X+X&XXX+X$X+X$XoX+X$XF.",
"!.+X+X+X+X+X+X+X+X*X+X&XXX;X].W.s.p.-.s.h.>.W e < 8 r u F L L L ] ] ] L F D 9 , t W =.,.,.=.#.;.P.[.+X;XXX*X+X*X$X+X$X+X+X+X*XD.",
"U.*X+X$X+X+X*X+X*X+X*XXX+XJ.j.-.,.,.p.,.K t o , < F F G L I [ [ [ [ [ [ [ ] J r 8 , i W -.;.,.-.Q k.F.J.*XXX*XXX*X+X$X$X+X%XoXG.",
"Q.+X$X+X+X&X&X*XXX*X{.J.z.=.,.h.>.#.W t , o , 8 , F L I [ [ [ [ [ [ [ [ [ ] [ I J r , , i W -.,.,.=.` } z./.+X&X+X$X+X+X&X+X*XM.",
"U.=XOX%X+X&X:X*X*XY.j.-.,.h.,.( t 1 2 : : < < 2 , J [ [ [ [ [ [ [ [ [ [ [ [ [ [ [ L F u 0 2 W ` ` -.p.,.` -.!.XX*X+X+X+X+X%X+XG.",
"Q.XX+X+X+X*X;X*X(.i.=.p.=./ F 1 5 5 r : 2 8 < 9 , F [ [ [ [ [ [ [ [ [ [ [ [ [ [ [ [ ] ] K r 8 < : F W ( p.=.` T.+X+X%X%X*X+X*XM.",
"U.*XOX%X+X*X*X+X|.-.W y 2 1 4 s 5 9 u , 2 8 , < , J [ [ [ [ [ [ [ [ [ [ [ [ [ [ [ [ [ [ [ L F 9 : 5 3 2 G ` #.h.*X+X+X+X+X*X+XG.",
"~.+X%X+X+X;X;X*X^.-.i : 2 m f 3 < u G , O 9 , , , D I [ [ [ [ [ [ [ [ [ [ [ [ [ [ [ [ [ [ [ I L 9 1 j 4 : W #.z.XX*X+X%X&X+X*XM.",
"U.;X+X+X%X;X*X+X{.$.p : w l 4 < u G F r , 9 < < o 8 L [ [ [ [ [ [ [ [ [ [ [ [ [ [ [ [ [ ] ] [ ] J 9 V d , ~ ` z.*X;X*X+X+X+X&XG.",
"~.+X&X&X+X;X*X*XY.$.p , 6.g > r F L I F : 9 < 8 , < L [ [ [ [ [ [ [ [ [ [ [ [ [ [ [ [ ] ] ] | | L r 1 4 : W ` z.XX*X*X+X%X+X*XV.",
"U.*X&X+X*X;X*X|.d.! p , m s 8 r J I [ F : 9 < 8 < , L [ [ [ [ [ [ [ [ [ [ [ [ [ [ [ ] ] ' S Z H I J 1 4 : Q =.-.~.%X%X%X+X&X+XG.",
"E.+X*X+X+X*X+X+Xd._ p , s > r G L ] [ F : 9 < 8 < < I [ [ <.1.<.<.<.<.<.1.2. .[ [ [ ] ' H O.A H ] G 9 V , b ` Q B.*X*X%X+X+X*XD.",
"R.*X$X+X*X*X*X[.i.! a : 3 < u F I [ [ F : 9 < 8 < < L I  .4.L ~ } } } ~ F  .<.1.[ [ ' S +.w.A ' ] J 8 8 : a ! Q A.*X*X+X+X+X%XD.",
"E.+X+X+X+X*X+XN.! ! p : , e G L [ [ [ F : 9 < 8 , , D I  .2.F h.b.b.n.I.h.>.G <. .' H O.w.T S ' ] L u , , a ( ! z.{.+X*X$X+X*XD.",
"E.*X*X+X*X+X+Xv.Q ( p , < u F I [ [ [ F X , < < < X 9 L [ 1. .L L L r ,.l.k.G @.| S O.w.T H ' [ ] L u , : a / ! _ Y.*X+X+X+X*XD.",
"R.*X+X+X+X*X*Xv.Q Q p o < u L [ [ [ ] J 9 : 8 < 8 : X r L  .<.<.<.2.<.I I ] [ | H O.w.T H ' [ [ [ ] u , , a ( ` _ P.*X;X&X+X*XD.",
"E.+X&X+X&X+X+Xv.( / p : 8 F L [ [ [ [ I r , 9 < < 9 : : F I I I I I [  . . . .H A 9.R S ' | [ [ [ I F < : a ( #._ W.=X*X&X+X*XD.",
"U.;X+X*X$X+X*Xv._ ! p , r F I [ [ [ [ ] u X 8 9 , 8 9 X 9 u 0 9 9 0 u L I [ ] ' r Z S  .2. .[ [ [ [ L r , p ( #._ B.+X*X+X%X+XF.",
"!.+X+X+X$X&X~.p.! ! i : u G I [ [ [ [ I D , X 8 < : < X X : X X X X , 8 F L I | | | J F ] 1.] [ [ [ J r : a ! #._ #.~.*X*X+X*XM.",
"U.*X+X*X+X+XJ.Q ( ! p , r L I [ [ [ [ [ L D < X < : X X     # @ & # . o O 9 F I ] <.J h.J 1.] [ [ [ L r , a ( =.=.#.].*X*X&X+XG.",
"!.OX&X%X+X*XF.( ` ( p , r L [ [ [ [ [ [ [ I u , O : ; * @ + + $ $ $ $ @ X o r I [ <.~ C.F 1. .[ [ [ L r : p ( -.#.` T.&X*X+X*XM.",
"U.&XXX+X+X{.N.! ( #.p , u L [ [ [ [  .&.[ [ I F , X * @ + $ = - - - - $ @ * 8 F [ <.L J.( I &.[ [ [ L r , a ( -.#.! d.{.%X*X+XG.",
"!.OX%XXX&X/._ ! ! #.p , u L [ [ [  .2.2.1.<.] J 0 X & + = - m z z j - - + & o u L 1.F l.C.L &.[ [ [ ] F 8 a Q #.-._ i.{.;X+X-XM.",
"U.&XXX%X%XY.` ` ( #.p 9 u L [ [ [ &.I F L <.] F , . + @ - ) q.0.0.q.B - = @ X , J 1.[ ^ b.I  .[ [ [ I K 9 a ( ( -.` p. X*X&X+XG.",
"~.+X&X+X`.d._ #.( #.i r D L [ [ [ &.L x.~ <.] D ; * + = h 8.t.u.y.t.5.4 = + . : J [ <.} b.L  . .[ ] [ G r a #.( -.` i. X*X+X*XM.",
"U.*X+X*X{.=.` =.( #.p e F L [ [ [ <.L n.~ 1. .F : * + = h 8.e.y.t.e.8.d = + * o F [ <.L -.L <.[ [ [ ] J 9 a #.! -.` -.E.+X&X+XG.",
"E.+X+X+X`.-.#.X.( #.p r G L [ [ [ &.L n.K I <.F X & + = j 8.e.e.e.t.8.j = + * o F [ 1.[ I <. .[ [ [ ] G r a =.( -.#.Q z.%X+X*XV.",
"U.*X+X%X_.#.#._ Q #.p r G L [ [ [ &.L C.b.L  .F o   + $ 4 7.r.e.e.q.) - $ + * o D I &.2.1.<.[ [ [ [ [ J r a #.` -.#.! z.+X&X&XD.",
"E.+X&XXXv.Q ` ( Q =.p r G ] [ [ ] *.L / Z.L *.L 9 X # + = x ) U U V x = + & : : , D I [ [ [ [ [ [ [ [ G e a #.( -.-.! v.OX+X*XD.",
"R.*X+XXXd.! =.( Q =.p r L ] [ [ [  .1.L C.L *.] D o   + + = - - - = = + + * , 2 X , u L I [ [ [ [ [ [ J e a #.( -.-._ v.+X+X+XD.",
"R.&X+XXXj.` -.( Q #.p r J ] [ [ [ [ 1.~ n.L <.I L 9 X   + + $ $ $ + + + * , < 9 9 o , 8 J I [ [ [ [ I F 9 a #.( #.-._ z.+X+X&XD.",
"E.+X*X Xs.` -.Q =.#.y r I [ [ [ [ I 1.G K L <.[ I u , X . & + + + + & X O , , < 9 8 , X 8 F I [ [ [ [ G r a #.~ ( -.` =.I.&X%XD.",
"R.$X*XA.( ` ` Q =.-.y r I ] [ [ [ [ 1.1.1.2. .I I P F 0 , X X X . . X , o : 9 , , < 9 < X < D I [ [ I J r a =.Q ( -.#.Q A.&X&XD.",
"E.+X*XN.! #.` / -.#.p t ] [ [ [ [ [ [ [ 1.1.' H Z H I I F 0 < , , < r F r o : 9 9 , < 9 , X r I [ [ [ G t a #.~ #.;.-.! A.+X*XD.",
"U.*X%XN.( -.` ~ =.=.p r I [ [ [ [ [ [ [ I ' S O.T Z I [ ] I J L L L I I L r o o 9 2 , 9 < o r [ [ [ ] G e p =.G G >.-.! F.=X&XF.",
"!.+X+Xv.! -.Q ~ =.=.p r I [ [ [ [ [ [ [ ' S +.w.T P |  . . . . . . .[ [ I L r o : 9 < , 9 , r I [ [ ] G r a #.G r =.-.! B.+X=XM.",
"U.=X!.#.` ( i G =.-.p u [ [ [ [ [ [ I ' S +.w.Y P @.<.[ I I  .I [ 1.1. .[ [ L r o , 9 , 9 : r I [ [ I L 9 a #.a r =.>.` $.E.&XG.",
"Q.+XK.` ` K 9 i -.d.! ( } :.[ [ [ I ' S +.w.Y H @.4.J =.h.h.h.h.} D I 1.[ [ [ D , , 9 , 9 , r I [ [ [ F r a =.G 9 L -.#.! E.*XV.",
"U.=XP.! =.a a ( a.-.b i ~ ....3.[ ' S +.w.Y P '  .2.L %.l.,.h.x.I.c.L &.1.[ I L r : 9 , < , , F I [ ] K r a =.~ 9 u >.-.! Y.+XG.",
"Q.&XJ.Q =.W W =.-.#.p 8 u I [ :.@.S +.w.Y H | I [ 1.<.<.I  .[ i } =.G *.2.[ [ ] e : e < , 2 O u [ [ I F 9 a =.( u i -.;.( I.*XV.",
"U.+XA._ #.( K ` -.-.#.W ^ I [ ] / T 9.T H ' [ ] [  . .|  . .<.<.<.<.1.1. .[ [ I e , e < , 9 : F [ [ L u , a -.=.u t { -.Q ;.|.G.",
"Q./.` Q ;.a W =.-.d.b : #.L ] ] ' o.H E ' ] [ [ [ [ [ [ [ [ [ [ [ [ [ [ [ [ [ [ e O 8 e < 9 : D [ [ J e , a -.=.G < W -.( =.].S.",
"U.!._ _ W r ( ;.-.d.b o W L ] [ I ..3.] [ [ [ [ [ [ [ [ [ [ [ [ [ [ [ [ [ [ I I r X < 2 , e : D I I D O : a -.-.` r G X.#.#.`.G.",
"~./._ i.( 9 %.j.d.d.a o p #.-.:.I } ..] [ [ [ [ [ [ [ [ [ [ [ [ [ [ [ [ [ [  .I F O , 9 , 9 : D I F e < , a =.-.X.t 8 ^ -.#.!.V.",
"U.Y.! #.W 9 ;.;.#.#.a : : , t =.[ [ %.[ [ [ [ [ [ [ [ [ [ [ [ [ [ [ [ [ I [ [ [ L 8 , 8 < 8 : r F e q m , a -.-.=.~ 9 ^ -.! z.V.",
"G.s.Q #.~ 2 -.d.;.-.p , d 6 e =.L L %. .[ [ [ [ [ [ [ [ [ [ [ [ [ [ [ [  .I [ [ I 8 O e , < , : r 8 m h , a -.-.-./ 9 ^ -.( d.m.",
"G.;.! ( K i / s.d.z.a : M C n p r K %.[ [ [ [ [ [ [ [ ] [ [ [ [ [ [ [ [ I  .I  .I 8 , e 2 < 9 o 8 y l s : b =.-.=.i 9 ^ ,.` j.M.",
"G.,.#./ a ~ =.#.#.d.b : M l s > 1 i G J I I [ ] [ [ [ [ [ [ [ [ [ [ [ [  .I  .I I e , e < < 8 , y N k s : a ;.-.( 0 < G =.` d.m.",
"R.i.` W e ^ -.-.#.i.! 5 N x k k m v y 9 D F L I I I I I [ [ [ [ [ [ I [ [ [ [ [ I r < 9 8 < 1 7 N f g s , a ,.-.` 0 , 9 } ` ` v ",
"v.=.( i 9 =.,.-.$.#._ n N g f k k C V v 9 9 u F F J J G L L I L I I I L I [ I I L 0 , 8 2 5 s f f f f s , a -.>.Q 0 : < G ~ ! w ",
"v ( ~ 9 , p -.;.;.#.y > 4 m 4 c w 5 y p < X < 8 < e 8 8 e u D F D D D D F J D 8 9 , o : : 3 3 3 5 3 3 > : p / ^ F 8 a < < r K w ",
"y W u 9 W e W ;.$.#.p , 9 b b 2 , , O O , < , , O O < O , 8 8 8 , 8 8 8 8 8 O < a a p G b G p a a b a G r , 9 8 < a X.a : , 2 . ",
"X , , a W < , t p W i r r G t u r r r r r r r r r r r r r r r F >.,.,.h.,.,.,.b.{.].`.[.[.[.`.{.].|.`.|.B., X : , < 2 , O , , . ",
"#.2 o , : o : : o : , , r t r u D r D D D u u l.A.H.H.H.Z.A.Z.P.[.*XXX$XXX+XoX+X&X+X*X+X*X+X*XXX=XOX=XOX{.B.k.2 , , < 8 2 9 r , ",
"Q.C.t e t t e 0 t F F K ^ ~ l.P.P.P.H.P.P.P.P.[.;X$X;XoX;XoX;XoX:X+X;X+X*XoX*X*X+X&X+X&X+X*XXX;X+X*XOX*XXX;X|.P.F.P.Y.Y.W.I.I.d.",
"D.[.P.P.K.K.P.K.I.K.T.P.!.P.`.{. X[. X[.[.[.{.{.`.[.`.|._.|.`.|.(.|.(.|.`.[.[.[.{.`.{.`. X`.{.`.{.).XX_.{.`.|.|.oXoX+X%X+X+XXXG."
};
