/* XPM */
static char *_17437ef5696480be9f7a33247c98286cLNsRLc5wjCaMYlO[] = {
/* columns rows colors chars-per-pixel */
"64 64 238 2 ",
"   c #010101",
".  c #050309",
"X  c #080709",
"o  c #0F081A",
"O  c #221430",
"+  c #3F4539",
"@  c #48453F",
"#  c #3A2D49",
"$  c #3D3848",
"%  c #3E2954",
"&  c #443F4D",
"*  c #4A3D4F",
"=  c #422A59",
"-  c #4B3D53",
";  c #47395A",
":  c #513C5B",
">  c #4E3B62",
",  c #4C3D69",
"<  c #533C65",
"1  c #553D6A",
"2  c #593D6C",
"3  c #533669",
"4  c #593D71",
"5  c #613F7B",
"6  c #3F4243",
"7  c #444345",
"8  c #4B4444",
"9  c #44434B",
"0  c #4A4A48",
"q  c #524C47",
"w  c #53524D",
"e  c #494358",
"r  c #514357",
"t  c #485659",
"y  c #575656",
"u  c #4E504D",
"i  c #625658",
"p  c #4B685D",
"a  c #4E6D5E",
"s  c #4D4565",
"d  c #534366",
"f  c #524B64",
"g  c #56426B",
"h  c #5A436D",
"j  c #564B6B",
"k  c #5B4A6D",
"l  c #5A4364",
"z  c #4E5665",
"x  c #5A536D",
"c  c #565C6A",
"v  c #545665",
"b  c #544371",
"n  c #5C4472",
"m  c #5D4973",
"M  c #594778",
"N  c #5B5671",
"B  c #62586A",
"V  c #614574",
"C  c #624B75",
"Z  c #694D76",
"A  c #63447A",
"S  c #644C7B",
"D  c #694E7D",
"F  c #68467F",
"G  c #645276",
"H  c #66527A",
"J  c #69547C",
"K  c #6D5C7C",
"L  c #665A77",
"P  c #715E7E",
"I  c #60466D",
"U  c #4F6A64",
"Y  c #4D6360",
"T  c #5A6264",
"R  c #5C636C",
"E  c #566668",
"W  c #557669",
"Q  c #5A6B79",
"!  c #5C7472",
"~  c #4F7369",
"^  c #666577",
"/  c #73647E",
"(  c #746A7A",
")  c #697479",
"_  c #606568",
"`  c #38739E",
"'  c #3A6DA6",
"]  c #3677A3",
"[  c #2E77B3",
"{  c #3A5E90",
"}  c #584E87",
"|  c #585686",
" . c #5A5B95",
".. c #485C88",
"X. c #664D81",
"o. c #694D83",
"O. c #6A4B85",
"+. c #734D89",
"@. c #6C5384",
"#. c #6E5A83",
"$. c #6D538A",
"%. c #6C5B8A",
"&. c #62568A",
"*. c #715686",
"=. c #725C84",
"-. c #72558B",
";. c #745A8C",
":. c #795B8C",
">. c #675A96",
",. c #745692",
"<. c #755B93",
"1. c #7A5D95",
"2. c #755C9C",
"3. c #7C5E9A",
"4. c #7C5695",
"5. c #4A669B",
"6. c #53758D",
"7. c #746385",
"8. c #766984",
"9. c #7A6C86",
"0. c #75638B",
"q. c #79658C",
"w. c #7C6C8B",
"e. c #796181",
"r. c #7C7385",
"t. c #7D728B",
"y. c #747387",
"u. c #696297",
"i. c #746194",
"p. c #7C6394",
"a. c #7D6C92",
"s. c #74629A",
"d. c #7D619C",
"f. c #7F7292",
"g. c #697385",
"h. c #7B5EA2",
"j. c #446AA6",
"k. c #5062A0",
"l. c #7B63A2",
"z. c #7A66A7",
"x. c #6868AE",
"c. c #815B95",
"v. c #825D9C",
"b. c #885B9C",
"n. c #816C8D",
"m. c #81738D",
"M. c #847A8D",
"N. c #816D93",
"B. c #81639D",
"V. c #856A9A",
"C. c #847493",
"Z. c #8A7494",
"A. c #857993",
"S. c #8A7C95",
"D. c #86759A",
"F. c #8A759B",
"G. c #8B7C9B",
"H. c #877B99",
"J. c #937F9D",
"K. c #855EA4",
"L. c #8364A3",
"P. c #8669A5",
"I. c #886AA4",
"U. c #8A66AA",
"Y. c #8C6CAA",
"T. c #8966A8",
"R. c #8E7CA0",
"E. c #8D70A8",
"W. c #927DA4",
"Q. c #9476B0",
"!. c #916BAB",
"~. c #1B92BC",
"^. c #3C8AAA",
"/. c #2396B9",
"(. c #3094BC",
"). c #508190",
"_. c #488FAC",
"`. c #1E9CCD",
"'. c #1498CC",
"]. c #1694CD",
"[. c #2688C6",
"{. c #3895C0",
"}. c #36A3CA",
"|. c #50B0D1",
" X c #89828F",
".X c #8B8293",
"XX c #8E829D",
"oX c #8F8898",
"OX c #91859C",
"+X c #948C9C",
"@X c #9A959E",
"#X c #9383A3",
"$X c #9589A2",
"%X c #9A8BA5",
"&X c #9B8CAB",
"*X c #9984A9",
"=X c #9B93A4",
"-X c #9E93AA",
";X c #9E9DA2",
":X c #918CAA",
">X c #A18AA8",
",X c #A39BAB",
"<X c #A294AB",
"1X c #A495B3",
"2X c #AA9AB5",
"3X c #A999B6",
"4X c #B09EB8",
"5X c #A8A2AD",
"6X c #AEA5B6",
"7X c #B4ABBB",
"8X c #B2A7B9",
"9X c #B9B5BB",
"0X c #B7A8C4",
"qX c #BCB5C4",
"wX c #BEBBC2",
"eX c #BEAED3",
"rX c #C3BAC9",
"tX c #C8BBD6",
"yX c #C6C3CB",
"uX c #CCC9D5",
"iX c #D0C8D5",
"pX c #D9D4DA",
"aX c #DAD4E1",
"sX c #D4C7E1",
"dX c #E4DAEB",
"fX c #EDEDEE",
"gX c #EBE6ED",
"hX c #EAE3F2",
"jX c #F2EAF9",
"kX c #F3F3F3",
"lX c #FBFDF5",
"zX c #FCF6FE",
"xX c #FEFBFF",
"cX c #FFFCFF",
"vX c #FFFEFF",
"bX c #FEFCFE",
"nX c #F6F5F8",
"mX c #F0F1EF",
/* pixels */
"                                    .                 bXkXvXpXx = qXvXmXlX    .                                                 ",
"                  X                           . xXxXuXpXuX. jXA.( dXO tXuXyXxXvX        X                                       ",
"                                  .         vXzX# 6X5XbXuX=XS.m.i.D.+XiX  +XXX% bXvXvX                      .                   ",
"                    .     .               vX;XwX8.tX;X6X.XA.t.#X#XG.m.A.1X$X-X0.^ 7X7XvX    X                                   ",
"                        .             bXnXvXyXuX3X$Xm.A.A.#X*XG.A.M.H.f.C.q.m.OXM.vXgXnXnXvX                                    ",
"                                vXxXpXpXiXvXjX;Xt.A.#X%XR.XXq.q.q.D.R.Z.S.H.q.D./ m.xX  rXpXaXxX    .       .                   ",
"                X           vXvXvXxX6XvXpX,XOXC.XX*X#XH.=.J C g : C J f.G.G.XXA.a.9.9..XpXB $X# vXvX          .                 ",
"                    .   vXbX  9XM.& rX6XS.A.C.#X#XR.#.n h h n X.Z 1 1 G m #.A.C.R.D.t.r..X>X&XJ +XB vXvX                        ",
"  .                 vXlXnXvXc dX-X,XXXA.Z.$X#XC.=.C b n Z J -.$.$.-.@.S n h k m w.F.OXG.t.8.w.n.tXv bXmXzXjXX             .     ",
"    .           vXgXhXaXvXbX,X1XA.A.A.#X#XR.=.n k C A @.$.-.;.<.1.3.<.<.;.@.S h C K a.G.G.Z.C.9.q.r.vXvXB qXzXnX          .   X ",
"            . vX# 0Xo dX6X+X.XC.G.#XG.Z.;.C 1 n g D -.<.<.<.3.3.v.l.v.3.d.3.-.X.C n m #.m.H.H.A.w.8.m./ %X7X.X. xX.   X         ",
"      .     xXy S.yX7XOXA.H.#XOXZ.N.=.C 1 1 2 V V ;.<.4.p.B.3.3.3.3.4.3.3.3.3.3.-.X.n h G =.F.#XS.D.D.q.t.8.uX.Xe zX.       .   ",
"          X xX5XyX$XR.a.#XOXZ.i.x k k < < V V h 2 ;.4.4.l.v.3.3.3.3.d.3.3.3.v.d.1.3.;.o.S n #.q.C.D.R.R.D.t.G.3Xw.B vX  X       ",
"            vXr.@Xy.C.#XC.#.L j j k G g h m h m 1 ;.B.h.d.3.3.3.d.3.3.3.d.d.p.<.3.3.3.d.;.X.C h 1 m 7.8.H.G.8.8.1XOXvX          ",
"            vX( %X9.K G b j c c m x H n n C h g h -.3.3.3.3.3.B.3.3.3.3.3.3.3.3.3.3.<.4.B.3.-.S 4 k c t G q.D.9.#XOXvX.         ",
"            xXM.%Xw.@.g x ) U t b S -.2 2 n h h 1 @.<.d.d.3.3.3.d.3.3.3.3.1.3.3.3.3.3.3.3.4.d.<.O.s E c d *.R.9.-X+XvX          ",
"          vX( f.1X9.m j U U N n $.$.-.X.1 n h n 1 n <.1.1.d.3.h.3.v.3.3.l.d.<.d.v.1.L.<.l.K.1.B.,.V ^ R j J t.t.&X+XgX          ",
"  X       vX5X0X.Xt.J m ) E j C -.;.1.o.g C n V n 4 <.d.3.3.d.3.B.3.3.B.<.d.h.3.l.<.c.l.3.u.3.,.<.o.v v s %.A.t.1X.X            ",
"          vX;X1Xt.t.H d ) z h @.-.<.3.*.1 C h m n n 1.1.l.3.d.p.1.3.h.v.v.B.1.v.h.l.<.2.u.@.| >.<.<.f c d #.M.9..XiXyX      X   ",
"  X       7X=X-Xt.w.Z j R f S %.,.3.3.*.< m n n n 1 <.3.4.P.Y.B.T.U.P.B.L.Y.L.l.s.v.d.u.&.5.{ | 1.d.m ^ n G 9.n.w.rXwXvX        ",
"          9XjX%X9.9.J n f l +.$.1.3.3.$.1 n n m h V 3.B.P.E.-.B.a.N.N.N.D v.L.Y.B.v.i.>.' ~. .o.h.4.m x n C 8.n.m.wX9XmX        ",
"          9XqXM.9.t.Z 1 d Z -.;.3.3.3.@.1 n n n h n S -.B.Y.-.Q.1X3X1XtX1X*X;.p.B.<.| j.].'  .2.s.4.J d 1 G 9.w.w.+XvXbX.       ",
"    .     7X8X9.n.9.S 3 k J ,.3.3.<.3.o.h h g n h ; F p.<.L.B.3.1.-.Z F.W.W.@.p.l. .j./.j.&.u.s.2.3.;.h 2 G y.q.9..XvXkX    X   ",
"          7X7XC.n.g.@.2 I @.<.1.3.1.L.@.V g h n g h 1 A ;.B.B.B.L.T.Y.1.s.d.L.3. .' [.j.&.0.3.3.p.4.X.h 2 G t.N.w.r.vXbX        ",
"        vX7X7Xm.9.9.J < S *.,.3.h.h.3.<.S 4 C h m n g 1 D 1.<.i.1.1.3.B.c.L.l.>...] j.>.u.s.3.c.3.1.;.A < G w.t.C.m.  vXbX      ",
"        mXqXtXM.9.9.J < D -.,.B.1.d.d.v.X.1 h C 2 C C g b S S 5 4 A X.,.<.d.d.>.} }  .l.!.K.v.1.d.1.1.D 1 H w.C.q.S.@XL vX    . ",
"        lXxXS.m.w.8.Z g @.-.1.3.p.B.<.<.D 1 1 k 2 2 2 1 , g < < < 1 4 S O.-.p.i.d.K.%.%.c.T.3.s.3.3.<.D h H a.f.C.9..X# zX      ",
"      vXnXxX.X8.w.9.Z g o.;.<.B.3.B.1.B.1.@.n > k < < > s e $ 0 9 9 ; < 2 V -.p.u.T.%.XX=.!.h.i.3.3.<.D h G w.f.C.9.A.K ^ vXX   ",
".     vXvX. m.m.w.N.Z g X.<.3.3.3.<.3.d.3.<.$.4 1 1 d - & 0 @ @ @ 8 0 q e s M <.2.B.=.0X=.v.U.d.3.1.1.S g Z w.C.C.M..X0X-XvX    ",
"      vX( <Xt.w.9.C.G n D <.3.3.v.3.L.P.v.<.<.$.4 < e 9 7 q y y i i i w 9 ; 4 +.v.K.:.0XR.;.I.1.d.3.3.X.h G w.f.D./ t.-Xf.vX    ",
"    vXr B A.w.9.w.C.G n J 1.3.3.3.L.E.Y.P.L.d.-.F > 9 7 q E Q 6.6.Q _ w 9 * 1 O.3.l.-.#X0X%.B.l.v.3.1.*.m J w.t.D.M.q.XXt.vX    ",
"    vX=XsXG.n.m.w.D.H m o.1.1.3.3.B.d.$.<.L.p.$.1 - 9 8 y g._./.(._.6.c w 0 ; g X.Y.L.#.6X:.L.v.3.3.p.-.S J 0.q.D.m.w..Xf.vX    ",
"    bXM.XXw.N.A.q.C.H S @.:.3.3.<.U.-.3X;.L.v.o.3 r 7 w y ^.`.|.|.`.^.T y $ r < +.d.L.0.0X;.3.L.3.3.3.,.S G C.w.C.C.9.S.M.M.vX  ",
"    vXr.A.C.w.t.t.Z.H S -.1.3.p.B.K.;.4Xi.Y.c.$.s e 6 y E _.`.}.`.'.^.R y 7 r , @.v.L.;.F.=.P.3.3.3.3.;.S L C.9.H.C.9.OX6X2XvX  ",
"     Xm.G.8.C.A.9.C.G Z -.<.3.3.<.Y.-.8X0.;.B.$.> * 9 t R _.`.'.'.'._.R u 9 r , *.<.P.v.1.1.I.3.3.3.3.<.S H C.a.n.Z.t.t.,X=XvX  ",
"  . ,XzXOXm.Z.8.w.C.J S *.1.3.3.2.P.%.0X4X:.T.$.< : e 0 y ).(.~./.(.)._ 0 9 : , X.;.l.Y.T.I.3.3.s.3.3.,.S H Z.t.H.Z.8.9.$XoXvX  ",
"    +X%X9./ C.w.q.C.H @.;.<.B.3.l.L.1.q.4X*.L.<.m : e + q _ 6.6.).6.R w + 9 < 1 1 X.<.K.v.L.<.d.3.3.3.<.Z H C.w.D.Z.A.m.$X.XvX  ",
"  . oX%Xm.m.n.N.9.C.H S -.3.3.3.<.T.I.=.0X:.U.<.+.< ; 9 @ q y T t w q 8 @ e n V 1 h o.-.<.3.3.3.3.3.3.,.S H Z.t.Z.m.M.9.S.OXuX  ",
"  6XOX#X9.m.G.0.a.f.H S <.3.3.3.d.B.4.a.2X:.T.<.1.n : : & 9 8 u @ @ & * r 1 M V n 1 h m @.4.d.3.B.3.3.;.S H A.w.C.A.n.9.&X^ yX  ",
"  qXf &Xt.m.Z.a.f.F.H H <.d.3.3.3.v.U.$.P -.T.B.<.X.g < ; e & 8 8 7 e s : 4 M < h C g > b X.1.3.3.3.3.;.S G C.q.w.C.m.m.A.rXwX  ",
"  5X8Xt.8.m.N.q.C.C.H S 3.d.h.3.2.v.U.T.T.U.B.B.3.<.&.X.M 3 < > ; < 1 1 1 < n h g n C n 1 1 @.<.3.3.<.<.S H C.w.w.D.C.t.w.6X6X  ",
"  6X,Xt.C.A.t.0.C.C.H H s.3.3.3.c.z.;.K.L.l.x.N | &.<.-.*.C g g V n S *.S 1 < n n h n m h 3 S 1.3.3.3.<.S H N.w.q.G.A.9.m.<X,X. ",
"nX,X2Xt.t.Z.w.q.C.C.H H 3.3.1.3.K.:.s.1.z.3.| [ ..| 2.v.B.1.;.1.,.<.-.<.p.X.1 n n m h n m > A <.3.l.3.<.S H N.0.*.N.J.w.w.3X,XkX",
"kX+X-Xr.m.G.7.q.Z.C.H S 3.3.3.3.<.b.p.z.,.| j.[.5. .d.L.h.h.z.h.B.4.P.3.,.<.X.< < m n h C g A 1.3.3.3.;.S J C.0.C n.H.Z.9.=X( nX",
"fX. r.m.w.:.@.;.Z.C.G S 1.3.3.d.b.s.3.2.| ] ].5. .z.B.B.p.s.v.c.B.L.Y.T.4.3.<.X.< n n g C n F <.4.d.3.<.S H C.7.V q.R.w.m.M.xXxX",
"kX  r.t.8.q.M @.A.C.J Z 1.3.3.3.l.3.>.| ] [.k.| h.Q.1.V.#X#XJ.>XV.@.;.V.L.3.3.$.2 g C g n g n 1.d.h.3.-.S H f.8.F %.C.H.8.m.. jX",
"kX. r.C.D.C H p.A.C.G S <.d.3.d.<.x.o.] [.5.o.u.P.Y.,.V.*X*X#X>XtX3XB.B.P.1.3.3.C 1 M n n h 2 $.3.3.3.;.S G D.q.Z m D.G.w.m.O vX",
"xXo r.q.D.L J N.Z.A.G h $.3.3.s.<.| [ [.5. .2.B.B.L.L.B.1.v.s.&.9.C.*.B.Y.3.h.<.J 1 S h g I 1 S 3.3.1.,.S H D.C.@.S C.G.m.m.8X=X",
"A.%Xm.w.N.X.@.C.f.C.Z h o.p.d.c.>.5.` 5.>.1.3.s.d.d.d.l.B.L.L.L.L.P.L.L.L.3.3.3.D 1 C k n m 2 X.s.v.-.@.n S A.Z.%.S =.H.w.9.OXH ",
"L n.w.w.#.Z q.C.A.C.D n X.<.d.4.2. ... .2.d.3.v.3.3.d.3.3.3.d.d.3.3.d.B.3.3.1.3.S < k h n S 1 S s.v.p.n 1 H t.Z.a.h @.F.m.9.C.G ",
"L m.t.9.#.S N.F.S.C.J 1 A %.<.s.3.1.2.3.s.i.3.b.3.3.3.3.1.3.3.d.1.3.3.3.3.3.3.p.X.1 h C h S 2 Z 1.v.;.d 1 H A.Z.a.H @.w.C.m.r.8.",
"/ m.9.D.*.S w.S.Z.C.H < n S $.3.3.3.3.d.3.3.s.d.3.3.3.3.3.3.3.v.3.3.3.p.d.d.d.3.$.n 1 C h n 1 Z 4.-.n x g H t.S.Z.H n p.G./ A.iX",
"0XS.9.Z.%.Z V.A.S.f.H d k k D ,.<.3.2.h.3.v.3.2.3.3.3.3.3.3.3.3.3.d.d.d.d.3.3.1.<.n g C g n b V $.X.x ^ m C m.A.C.N.C #.F.w.9.%X",
"%X9.9.C.@.S w.S.A.C.H d x f h Z %.1.v.d.3.v.h.3.3.3.3.3.v.3.3.3.3.3.p.3.d.3.3.3.1.F 1 C h n 1 2 S b ^ Q k G C.S.H.N.D ;.D.f.t..X",
"S.t.9.#.H %.q.S.C.D.H s T E v I H -.c.3.2.1.b.v.3.3.3.d.d.3.3.3.3.3.3.3.h.d.3.3.3.A h C n n h < j N ! p d Z m.Z.F.#.n ;.G.H.9.M.",
"G.n.M.=.S p.H.A.A.F.Z e U ~ z k n A o.%.i.1.1.s.3.3.3.3.p.3.3.3.3.3.3.3.3.3.3.3.3.S n n n n C g x y.W a f J Z.G.C.@.4 S C.A.9.$X",
".Xn.N.;.S p.H.Z.A.D.G z U a a a ^ v k V o.-.<.s.3.<.<.3.3.B.3.B.3.3.d.3.B.3.<.K.p.S 4 D n j j z W ~ Y E f Z F.G.D.H 1 h q.F.8.m.",
"S.w.q.=.n N.Z.M.A.C.G v Y W U W ~ ! g.^ I V D o.*.*.*.-.;.<.<.1.<.<.1.$.3.B.3.1.,.O.4 2 k f T E ! p ! E e K D..XV.Z h h J q.q.w.",
"t.N.0.h g K F.F.S.Z.H x R ^ z f t z ^ L k g g m V n V A C X.@.X.*.;.H ;.@.@.@.b S n : h d m z z t x z j g m =.N.#.m @.M 1 S =.7.",
"0.q.Z Z q.h 0.N.w.n.J s j x h 1 I 2 1 g h n 1 b 2 2 l 2 h I V h I 1 S h h h h n j m n g b m g n m h k , 4 n S n g Z a.p.M 1 h n ",
"g n g P =.k n J H @.@.n Z S X.O.X.O.X.A F o.F F S S X.X.S X.o.X.$.-.X.X.$.-.o.-.R.G.G.G.C.7.n.7.=.=.7.9.P l d 1 g k Z I < < 1 n ",
"H , < h h 1 1 h 1 1 1 S X.X.$.O.X.S @.X.J J D -.@.;.;.@.@.*.#.;.*X2X1X1X&X2X4X4Xo E.D.a.i.a.0.q.p.0.%.#.a.H M M < < > < h m C S ",
"F.H g 1 m 1 1 g n H C X.S X.3.*.;.*.@.@.@.D #.D..               #X4X1X&X1X1X3X4XqX<XvXvXbXbXlX      vXvXbXvXdXP J J C n S @.;.3.",
"; w.J S M Z Z C D <.;.@.;.;.D.< 2 4 5 5 5 V S :.xXkXfXfXkXfXfXkXfXjX. .                             vXkXnXzX8X# % = = = = = 3 3 "
};
