/* XPM */
static char *_d0e5b5c980f4753be21baf15e867db6K3htX7mheLEMu6G8[] = {
/* columns rows colors chars-per-pixel */
"64 64 165 2 ",
"   c None",
".  c #493F56",
"X  c #4B3E5C",
"o  c #4E3D63",
"O  c #503F66",
"+  c #513F68",
"@  c #444445",
"#  c #46424B",
"$  c #48424E",
"%  c #4A4A4A",
"&  c #50504F",
"*  c #4A4254",
"=  c #4D415C",
"-  c #545454",
";  c #5B5B5B",
":  c #4F4062",
">  c #514167",
",  c #544E67",
"<  c #55436B",
"1  c #58476E",
"2  c #564B6A",
"3  c #59496E",
"4  c #545466",
"5  c #565B66",
"6  c #575369",
"7  c #5A546D",
"8  c #5B5B6C",
"9  c #5A4771",
"0  c #5C4A73",
"q  c #5F4C78",
"w  c #5C5070",
"e  c #5F5C72",
"r  c #5B517E",
"t  c #604E76",
"y  c #624E7A",
"u  c #625276",
"i  c #65527D",
"p  c #68577E",
"a  c #675979",
"s  c #6B5D7C",
"d  c #566264",
"f  c #5D6366",
"g  c #576D63",
"h  c #596C65",
"j  c #5D6669",
"k  c #5D686B",
"l  c #5B7166",
"z  c #5E7269",
"x  c #5E6A70",
"c  c #5E707B",
"v  c #616262",
"b  c #64786E",
"n  c #636174",
"m  c #666C77",
"M  c #666479",
"N  c #6E617E",
"B  c #6B697A",
"V  c #716D7F",
"C  c #657374",
"Z  c #697676",
"A  c #6A7D76",
"S  c #64727B",
"D  c #69747A",
"F  c #6F7A79",
"G  c #72787D",
"H  c #75817F",
"J  c #535783",
"K  c #5C5381",
"L  c #535A87",
"P  c #5F5884",
"I  c #555E8D",
"U  c #5F5989",
"Y  c #665381",
"T  c #6A5583",
"R  c #6D5A85",
"E  c #635B8C",
"W  c #6E5A89",
"Q  c #705F86",
"!  c #725C8D",
"~  c #675D90",
"^  c #755F92",
"/  c #5D7B8D",
"(  c #556494",
")  c #546798",
"_  c #536D9E",
"`  c #6E6081",
"'  c #736585",
"]  c #766A86",
"[  c #796E87",
"{  c #75648A",
"}  c #78678E",
"|  c #776A88",
" . c #7A6E8A",
".. c #607581",
"X. c #697D88",
"o. c #6C7B83",
"O. c #7A7087",
"+. c #7D728B",
"@. c #6D6195",
"#. c #616A95",
"$. c #766194",
"%. c #786296",
"&. c #7D6C93",
"*. c #73659B",
"=. c #7C659B",
"-. c #7D6C99",
";. c #736A93",
":. c #7E7091",
">. c #797498",
",. c #526EA0",
"<. c #5272A4",
"1. c #7769A0",
"2. c #7C69A1",
"3. c #81768F",
"4. c #806E97",
"5. c #80679F",
"6. c #80689F",
"7. c #827592",
"8. c #857A94",
"9. c #887E97",
"0. c #83719C",
"q. c #867A98",
"w. c #897E99",
"e. c #8167A0",
"r. c #836AA2",
"t. c #896EA9",
"y. c #8575A1",
"u. c #8A78A3",
"i. c #8B71AC",
"p. c #5D859D",
"a. c #748280",
"s. c #6B8390",
"d. c #5A85A0",
"f. c #5788A7",
"g. c #5A89A6",
"h. c #4E83B8",
"j. c #5082B6",
"k. c #5693B9",
"l. c #6495B3",
"z. c #4F8CC4",
"x. c #4C95C5",
"c. c #5299C8",
"v. c #5E9BC2",
"b. c #629CC0",
"n. c #6AA8CE",
"m. c #66A5CC",
"M. c #77B0D1",
"N. c #8C8397",
"B. c #8D819D",
"V. c #91849F",
"C. c #928A9D",
"Z. c #8F83A0",
"A. c #9285A2",
"S. c #968AA4",
"D. c #988DA5",
"F. c #9991A4",
"G. c #9D91AB",
"H. c #A296AF",
"J. c #A69BB3",
"K. c #AA9FB6",
"L. c #ABA1B7",
"P. c #ADA3B9",
"I. c #B1A7BD",
"U. c #BAB1C5",
"Y. c #C4BBCE",
/* pixels */
"                                                                                                                                ",
"                                                                                                                                ",
"                                                              ] s                                                               ",
"                                                          +.:.w.B.7.+.                                                          ",
"                                                    7.:.7.V.A.A.B.w.8.+.O.N                                                     ",
"                                                3.7.B.A.A.B.+.| ' +.B.9.q.7.O.] u                                               ",
"                                               .w.S.A.w.` s q > > w R 3.w.w.B.q. .N                                             ",
"                                          O.8.B.A.w.' q 1 > 9 u q < < u u ] 8.8.w.8.] [                                         ",
"                                      +.7.A.A.q.] 0 1 < y y Y R R Y i y < 0 q u +.w.w.8.O.R                                     ",
"                                 .8.8.V.A.q.] 0 1 9 y T T W ! ! ^ %.^ ! R T 0 + u { 3.B.w.7.O.s                                 ",
"                            [ 7.w.w.B.w.' u O < 1 T T R ! ^ %.%.%.%.%.%.%.^ W y 0 > u ' 8.w.w.8.] N                             ",
"                        +.7.B.A.9.7.' u > + < 9 < T ! ^ %.%.%.%.%.%.%.%.%.%.^ ^ W q 1 1 t ] 9.w.w.8.+.] '                       ",
"                    +.:.B.A.w. .u 7 1 + < 1 1 9 < R ^ %.%.%.%.%.%.%.%.%.%.%.%.%.%.! T i q 1 ' +.+.q.B.w.+.[                     ",
"                  +.7.Z.7.{ a 2 4 6 t + 1 9 1 1 < W %.%.%.%.%.%.%.%.%.%.%.%.%.%.%.%.%.$.W y 1 1 1 a ]  .B.7.R                   ",
"                  +.' s 1 2 4 d 4 0 p < 1 1 < 1 + W %.%.%.%.%.%.%.%.%.%.%.%.%.%.%.%.%.%.%.! T 0 > , 4 3 R +.7.s                 ",
"                  O.a > 3 C h 5 1 y T < < 0 1 1 < T ^ %.%.%.%.%.%.%.%.%.%.%.%.%.%.%.%.%.%.%.$.! q 2 j 5 > ] 3.[                 ",
"                  O.a < 7 z 5 1 Y R W y + 0 1 1 o 9 ^ %.%.%.%.%.%.%.%.%.%.%.%.%.%.%.%.%.%.%.%.%.W 9 S j < ] +.[                 ",
"                  O.a 3 H h , t R W ^ T + 0 1 9 1 < ! %.%.%.%.%.%.%.%.%.%.%.%.%.%.%.%.%.%.*.@.^ W y 2 5 + ] 3.]                 ",
"                [ O.a < C d 1 i W ^ %.T > 0 1 9 1 < ! %.%.%.%.%.%.=.%.%.%.%.%.%.%.%.%.%.~ E Y ~ ! W 2 5 < ] 3.[                 ",
"                O.O.a < d , q T W ^ %.T > 0 1 9 1 1 ^ %.%.2.r.e.=.5.5.=.r.t.5.%.%.%.%.~ U _ J ~ %.W 0 C < N O.[ [               ",
"                [ O.a < 4 1 i R %.%.%.T > 0 1 9 1 < ! ^ =.t.! { &.&.&.{ T =.5.r.%.%.@.U ,.z.I ~ %.W q 3 > s [ [                 ",
"              [ [ O.a < < t T ! %.%.%.T > 0 3 9 1 + T ^ =.t.R S.K.J.K.Y.A.u.R 5.2.@.E ,.z.) E ~ %.! y < < s ] [ [               ",
"              [ [  .a + < p R ^ %.%.%.T > < 1 1 1 o q W ^ e.=.! ^ ! u w.D.S.R 2.*.U _ z.) E @.%.%.! Y < > s  .[ [               ",
"              [ [ [ a + < T ! %.%.%.%.W 9 > 9 < 9 + O y ! =.=.=.=.t.e.^ ^ ^ %.*.E ,.z.) E @.%.%.%.! i 1 < a  .3.O.              ",
"              [  .] a > 9 T ! %.%.%.%.^ y > q 1 1 9 > > T ^ ^ ^ ^ ^ ^ =.=.=.=.E L h.) E *.*.%.%.%.^ T 1 < a  .3.[               ",
"              [ [  .a < y T ! %.%.%.%.$.i o 9 9 1 9 9 > q Y q q q y p ! ^ %.%.~ q K E 1.t.*.%.%.%.%.! y < s  .3.O.[             ",
"              [ [ [ a < i R ^ %.%.%.%.^ Y < o 9 9 > 1 o o > o o o X < 9 T W ^ %.^ 1.E R %.e.%.%.%.%.! t > a  .3.O.[             ",
"              [  .] a < y ! ^ %.%.%.%.%.^ Y < O 1 > o o X # $ $ . . . O + q W ^ ^ e.Q A.W r.%.%.%.%.! y < s  .7.3.[             ",
"              O.+. .a < y ! %.%.%.%.%.%.%.! Y > o > > = # @ @ % @ % % * o > y ^ %.r.! P.R r.=.%.%.%.W y < a  .8.3.[             ",
"            +. . .7.a < y ! %.%.%.%.=.5.%.%.^ Y < o : @ @ % - ; ; ; ; % # X 9 T ^ e.{ U. .! 5.%.%.%.! i < s  .7.3.[ [           ",
"            [ O. .3.a < i ! ^ %.%.=.t.t.r.=.%.W y o * @ - ; x c c k ; ; @ * o i ^ e.T G.K.^ =.%.%.%.$.T 9 a  .+.8.O. .          ",
"            O.+. .3.a 0 p ! %.%.%.=.^ R ! r.%.T < X @ @ ; o.l.k.k.l.D ; - @ o < R 5.=.} J.^ 5.%.%.%.%.R q s [  .8.3.[           ",
"          [ O.3. .3.a t T ! %.%.$.5.! G.Q r.%.T O . @ - j g.c.M.n.c.p.f - @ * + T *.r.4.J.! 5.^ %.%.^ ! t p 3. .8.3.[           ",
"          O.+.7. .3.a y R Q %.%.%.5.! P.$.r.%.Y O * @ ; j f.x.m.c.x.d.f - @ = + W %.e.Q 8.! 5.=.%.%.^ R t s 3. .7.3.[           ",
"          [ 7.7.[ 7.a t R ! %.%.%.5.! K.' ^ e.T O . @ - j f.x.x.x.c.g.f - @ = + T %.r.%.! 5.=.^ %.%.%.R t s 7.3.7.3.] [         ",
"           .+. .[ 7.i y R ! %.%.%.6.! P.J.! e.T O . @ % ; s.v.x.x.l.X.; @ @ = + Y ^ =.i.t.5.^ =.%.%.^ W t a 3. .8.3.[ [         ",
"        [ [ 3. .| 3.a y W $.%.%.%.6.! { I.Q e.! t o . @ - f / X./ S f - @ * < > < Y ^ %.=.%.%.%.%.%.%.W t s 3. .8.8.3.[         ",
"        +.+.3. .| 7.a q R %.%.%.%.=.r.{ P.! e.^ Y + . @ % & - ; ; - & % @ : 1 9 O < i ! ^ %.%.%.%.%.^ R t s 3. .8.8.[ [         ",
"        [ O.8. .| 3.a y W %.%.%.^ =.e.{ J.Q 5.%.! q X . @ @ % % % @ @ @ = > < 0 9 o + 9 T ^ %.%.%.%.^ W t a 7. .3.8.O.[         ",
"         .+.8. .+.3.a y ! %.%.%.%.^ r.R Q ! r.%.! i < o X * @ @ @ @ * : > < 1 < 0 9 1 o 9 T ^ %.%.%.%.R t p 3.|  .8.3.[         ",
"        [ +.+.] 7.3.a y $.%.%.%.%.%.e.r.r.t.=.%.^ ^ Y y < o o o o X o > O O 0 < < 1 0 1 o 1 T ^ %.%.^ W q s 3.[ 3.7.3.[         ",
"      [ +.3.+.| 7.8.s t ^ %.%.%.%.%.%.%.r.r.~ U K U @.! T q 1 < < 1 y R y O > 0 0 < 1 0 < o y ^ %.%.^ R q s 7.{ 3.9.8. .        ",
"      [ O.8.:.| 8.3.a y ^ %.%.%.%.%.%.%.%.~ E ,.) K *.^ %.^ W ! ! ^ ! ^ ! y O O 0 3 < 0 1 O y ^ %.%.$.Q 0 s 7.R T q.9.[         ",
"      +.O.7. .{ 7.7.a t ^ %.%.%.%.%.%.%.@.U <.z.( ~ %.=.=.=.=.=.%.=.%.%.^ ! y O < 0 1 < q < y ^ %.%.$.R t s 3.R t 7.8. .[       ",
"      O.O.&.p s 3.8.a i $.%.%.%.%.%.%.~ U <.z.( ~ 2.2.=.^ ^ =.%.=.r.r.=.%.%.! y o < 1 < t < y ^ %.%.^ ! q a 7.s y 4.9. .[       ",
"      +.+.{ 9 T 9.C.[  .4.0.%.%.%.%.@.E <.z.( ~ =.i.W 7.S.A.A.A.4.y ^ r.%.%.%.T < < t < 3 < y ! %.%.^ R t s 7.R 0 Q 8.3.O.      ",
"      +.:.s s  .N.8.N p Q -.=.u.*.@.E ,.z.( E ~ 5.t.! 0.A.A.A.G.Y.J.Q 5.r.%.%.! q < 3 < 1 < < T ^ =.^ ! q s 7.Q 0 p w.8. .      ",
"      +.7.{ ' 7.8.3.a 1 T ^ %.>.-.E <.z.( E *.%.^ r.r.^ 5.^ %.i &.7.T r.r.%.%.^ t < 0 1 < 1 + p %.^ ^ R q s 8.+.i i q.9.O.      ",
"    [ +.+.[ ` +.8.q.3.] { $.$.$.;.( j.( E ^ %.%.%.%.%.=.*.=.r.r.5.5.r.r.%.%.%.%.t < t 9 1 0 O Y %.%.! y < s 8.7.a y ;.8. .[     ",
"    [ ] N.R { 7.7.C.N > +.! $.$.;.>.Y #.@.$.%.%.%.%.%.%.%.%.%.%.%.%.%.%.%.%.%.^ t O 0 3 < 0 > T %.%.R t < s 3.3.R 1 ' 8. .[     ",
"    [ +.` u  .q.8.C.N O ] ! } %.^ -.y.$.%.%.%.%.%.%.%.%.%.%.%.%.%.%.%.%.%.%.%.^ q o 1 0 1 0 > T %.^ T + < s 8.8.+.y R :.3.[     ",
"    ] N.} q :.S.C.C.N O a &.8.0.^ &.-.%.%.%.%.%.%.%.%.%.%.%.%.%.%.%.%.%.%.%.%.%.T + < 0 < 0 > Y ! T q 1 > s 8.8.:.u 9 } 8.[     ",
"    [ +.{ 0 w.N.3.3.a < > < u 8.%.%.6.%.%.%.%.%.%.%.%.%.%.%.%.%.%.%.%.%.%.%.%.%.! 9 < 9 1 9 > y T q e S < s 8.8.7.{ 0 { 7.O.[   ",
"  O.[ +.{ 9 8.C.N.8.a > f 6 t 7.Q ! 4.=.%.%.%.%.%.%.%.%.%.%.%.%.%.%.%.%.%.%.%.%.^ 9 < 0 < 1 < > y 1 C j > s 8.8.8.[ q } q.O.O.  ",
"  [ [ +.` p ] C.C.F.s > F H V i y Q -.%.%.%.%.%.%.%.%.%.%.%.%.%.%.%.%.%.%.%.%.%.^ 9 1 0 9 3 9 : 1 n z d < s 8.8.7.T 9 } w.3.O.  ",
"   .+. .s } 7.3.O.C.N > F l d , 3 p s R ^ $.%.%.%.%.%.%.%.%.%.%.%.%.%.%.%.%.%.%.^ q < t 3 9 9 < a A l d < s 8.8. .0 1 R 7.8.O.  ",
"  +.O.{ q } 8.8.3.N.] 6 G l g g Z B u q i T ! ^ ^ ^ ^ ^ %.%.%.%.%.%.%.%.%.%.%.%.^ y 1 q 9 1 2 8 A g h d > N w.9.&.t > q } +.+.] ",
"  O.} p 0 7.N.8.8.+.[ G b l g l z A F M 3 q i T R T R R ! ! ! ^ ^ ! ^ ! ^ %.^ ! W q < 9 3 6 d h h g h d < s 7.q.[ q + 1 R | ] ] ",
"  +.} 0 < s 8.9.N.3.u , 5 C 8 n e 4 a M < > 1 9 9 9 9 9 q i T i T T T p T R T 9 q < > > > 4 4 6 4 4 6 , > a } } T 9 s 1 1 t R ] ",
"` { a 3 ' 0 Q w.8.3.a 2 w N s 3 1 < > + < < < < < < < < 1 1 9 q 1 9 1 9 9 9 1 < < < < 1 < < > > < > < < > 1 9 9 1 s :.s > < 3 2 ",
"< 1 < s ' 1 < u a ' p t t Q t y y y y y y y y y y y y Y y Y y y y i i i y i Y y                           < > > > 1 1 1 < + < 1 ",
"  > + < < > > > O < < 9 t i y p y Y Y Y Y Y y T                                                               < < > < < < 1 y y ",
"    < < < < < < < t q y T T Y                                                                                                   ",
"                                                                                                                                "
};
