/* XPM */
static char *_3dee383ba34468084c0bbc8ca84af3cYbZMG09ydgk8EYgZ[] = {
/* columns rows colors chars-per-pixel */
"64 64 146 2 ",
"   c #121619",
".  c #161A1C",
"X  c #181C1F",
"o  c #1A1E21",
"O  c #1D2225",
"+  c #1F2528",
"@  c #1F282B",
"#  c #202527",
"$  c #212629",
"%  c #242A2D",
"&  c #262D31",
"*  c #282F32",
"=  c #273133",
"-  c #2B3235",
";  c #2E3539",
":  c #2F383B",
">  c #30373B",
",  c #323A3D",
"<  c #363C41",
"1  c #353D42",
"2  c #363D42",
"3  c #373D42",
"4  c #363E42",
"5  c #373E42",
"6  c #373F42",
"7  c #373E43",
"8  c #373F43",
"9  c #353C41",
"0  c #353D41",
"q  c #383E43",
"w  c #383F43",
"e  c #383F44",
"r  c #393F44",
"t  c #383F44",
"y  c #374043",
"u  c #374143",
"i  c #374044",
"p  c #374144",
"a  c #364144",
"s  c #384043",
"d  c #384044",
"f  c #394044",
"g  c #384144",
"h  c #394144",
"j  c #394045",
"k  c #384145",
"l  c #394145",
"z  c #3A4145",
"x  c #384244",
"c  c #384245",
"v  c #394245",
"b  c #384345",
"n  c #3A4245",
"m  c #394246",
"M  c #394346",
"N  c #3A4246",
"B  c #3B4246",
"V  c #3A4346",
"C  c #3A4247",
"Z  c #3B4347",
"A  c #394446",
"S  c #394547",
"D  c #3A4446",
"F  c #3A4447",
"G  c #3A4547",
"H  c #394346",
"J  c #3B4348",
"K  c #3A4448",
"L  c #3B4448",
"P  c #3A4548",
"I  c #3B4548",
"U  c #3A4648",
"Y  c #3B4648",
"T  c #3D4448",
"R  c #3D4449",
"E  c #3C454A",
"W  c #3D464A",
"Q  c #3E474A",
"!  c #3F464B",
"~  c #3F474B",
"^  c #3F474C",
"/  c #3C4649",
"(  c #3E484B",
")  c #3E484C",
"_  c #3E494C",
"`  c #3F484D",
"'  c #3F494D",
"]  c #3E4A4C",
"[  c #3C494B",
"{  c #40474D",
"}  c #404A4E",
"|  c #414A4E",
" . c #404B4E",
".. c #414B4E",
"X. c #414A4F",
"o. c #414B4F",
"O. c #424B4F",
"+. c #414A4E",
"@. c #424C50",
"#. c #434C50",
"$. c #434E52",
"%. c #444D52",
"&. c #444E52",
"*. c #454E52",
"=. c #444F53",
"-. c #444D52",
";. c #455054",
":. c #465155",
">. c #475255",
",. c #475256",
"<. c #465154",
"1. c #485156",
"2. c #485157",
"3. c #485256",
"4. c #495256",
"5. c #495257",
"6. c #4A5257",
"7. c #495256",
"8. c #485258",
"9. c #495258",
"0. c #495358",
"q. c #4A5358",
"w. c #495558",
"e. c #4B5459",
"r. c #4C565A",
"t. c #4C565B",
"y. c #4C575B",
"u. c #4D565C",
"i. c #4E565C",
"p. c #4C555A",
"a. c #4E585D",
"s. c #4F585E",
"d. c #4E5A5E",
"f. c #4F595D",
"g. c #505A5F",
"h. c #505A5F",
"j. c #515A60",
"k. c #515B60",
"l. c #525C61",
"z. c #535C62",
"x. c #535C62",
"c. c #566066",
"v. c #566166",
"b. c #5A6469",
"n. c #5E686E",
"m. c #606B71",
/* pixels */
"< < < N N ! < N s N q < q < q < < > , , 3 , 3 q $ * * - - - - - = - = = = = = = - - - 9 { 3 r r N J J L L S ] ; ! S S S S S p q ",
"< < < N ! ] N N N N N < < s s < < < < > > , q > # - = - = - - - - = = = = = = - - * % ; %.r r 1 8 8 S S L S ] > N N N S L N u < ",
"< < < , ; } S S s N N q s < s s r < > < > > r - # ; - = = - = = = = = = & = = = * * $ - 2.9 9 < < < p p S S J > N N N S N p u < ",
"< < N > = ] L L S N N N s q < N 1 < r < > > { * O ; = = - = = = = = = = = * * = * - $ * 2.< > 9 1 1 1 p N 8 N * < < < p p N u q ",
"8 8 N ; % N S L L N r r s s < N r r > ; , < N - # , @ = & % = = = = = % % * = * * - $ % ` < ; ; : 9 9 9 9 9 8 & 9 < < < q s q < ",
"8 < q > $ L L N L N q 3 q < , > > ; * > < < N ; O ! + $ @ @ % @ @ @ & = % = * = - ; - # e N 9 ; ; : , 9 9 , 8 $ & > < 9 < q u p ",
"N r @.! + ^ %.N N p , > ; * % % & * ; > < q 8., . R , % = @ @ @ @ = % % % & * - ; ; - + ; ; - - ; , 9 ; > < J $ & 8 9 , 9 < < r ",
"; ; ; r O , % $ O O o o o o o # o + O O % * ; ; X - % % + O O + + O % % @ + $ $ % o o o + o O O + $ & + + + $ o + * $ % $ O & * ",
", ; , : > ; % = = ; > , 3 > > X & : : , 9 - = ; ; ; > ; ; = - : : - O % - = = % $ % * % - = & = % $ $ $ % + O O o o o O o > > < ",
"4.>.>.>.y.h.y.r.4.4.6.6.i.z.h.> 8.c.` 8.=.` [ ' { ( ....%.8.8.4.d.k.O u n.l.w.>.>.w.y.h.d.d.g.k.k.l.d.$.L 1 ; = * * * - N z.4.%.",
"S S S S S S S , > > > > > p.z.{ y.[ 9 a p U U U S S ( [ T ! ! T ..r.+ , d.U [ [ [ U S S a a a : < 8 1 8 p , : = & & * ; L ( < S ",
"S [ [ [ [ x 9 9 , , , , , > %.{ ] U 1 k p U [ U ( ] ( ( ( } } %.%.4.= , ] S [ [ [ [ [ S S a a a < < 9 1 p p a a ; & & & ; S S S ",
"[ [ [ U S u 4 , , , , , q , *.{ E P a k a m [ L ( ( ( [ ! ] $.%.4.} - z %.S [ [ U U S S S S a a u 1 1 1 1 a a S u , : & * < N S ",
"S [ [ S s q , , , , , , , , O.z a 1 9 m S a S L [ ( [ ( ( } :.%., - $ N T S [ S S S [ S S S a a p a 1 1 1 a S a p u S ; % , S S ",
"S S U a q , , , , , , 3 , , O.> : 1 = ; m m a S ( [ ( [ ] %.w.- % u = ; z x ( [ [ S S b S S a a S p a 1 a a a a S S u - $ , b S ",
"S S a , , , > , , , , , 3 3 , * ; ; ; - ; 1 1 < L ! [ L ] :.N % , ! = & { T b S S b b S S a S a a a 1 a a a a a a u b : $ < , S ",
"S a u , , : , u ; * * * 9 9 % $ > r 9 9 > 9 9 9 m P E ` ' 8.& ; < ] ; $ { =.] E U [ S p S [ L L m e e m p p p 1 a S S , $ z ! q ",
"@ = : : 4 S S : % % $ + % o $ o 9 r > & % % o o @ @ @ = : 9 $ 1 < r o & - $ ; ; ; , ; , u , ; ; - ; ; ; 9 a 1 1 ; % $ + O = * $ ",
"% % * - # o X . o o $ o + o $ $ > * * % $ o & % & & = = - * ; , ; % $ & - * & @ @   O O O O o X o O + o O O O . + % $ $ $ $ % % ",
" .<.w.l.v.h.w.r.9.9 %.z.9.2.r { %.2.X.{ r > z.j.y.w.y.] =.=.=.u.l.l.z.z.z.z.z.8.l.> - ` 8 p N p e m e + : 1 : . , m.4.S ..{ O.O.",
"> > 9 9 T { } O.u.r s.s.e 9 9 e 9 8 < 9 > ; p.2.a a = a 9 9 9 K , ; , < 1 e 1 e 4.< = u ; * * * * ; & - m : a = ] d.[ L T s , > ",
"> > 9 9 , , 9 > r 1 1 ; & & 1 e 8 p p 8 > > 2.R 1 a a a 9 1 m m ; ; ; , 9 ; 9 1 ! , ; ; % * & & & & = a 9 ; : - @.>.S L S S s , ",
"; > ; 9 9 9 9 9 e 9 o e ` ` 1 1 8 m N 8 ; * { R a a 9 9 9 9 ; = - ; ; ; ; ; , 9 N < > ; % * * = - & 1 1 ; ; ; ; L $.S L S ! , , ",
"> > ; 9 9 9 9 9 7 - 1 j.2.1 1 1 m m N q - & ^ R a 9 : : = = = - - ; ; ; ; ; 9 < < > ; ; & & & = = @ 1 : ; - ; = , S L S L ! , > ",
"> > < < 9 9 - 9 9 % > 2.` 1 1 e m k P 1 * & r 8 ; : ; - - = = - ; ; ; ; ; : 9 8 , ; * - & & & - @ : : : : ; > * > < L L ( < , > ",
"> > > 9 9 9 9 9 3 $ & { 1 1 1 1 k k S 9 & % ; 9 ; ; = = = * - - ; ; : : ; ; 9 1 , & % - % & = & = , - - - ; = & * , N S N < , , ",
"> > 9 9 9 9 < < { % $ { 1 9 e r K m E ; * $ ; > 9 = - = = - ; ; ; ; ; : 9 9 9 1 ; $ $ - & & & $ : : - - : : % # $ < u < < < < > ",
"> 9 9 > 9 < < 3 { % $ { ` e e r ' =.%.= * $ > J = 9 ; ; ; , , < u p N ! ` E ^ 8 - % $ , - * $ - : - : , S $ # # % ! N < > > > ; ",
"% * * % * * * $ < % o { 9 + + @ & & & @ * $ 1 - & = & % % & = * * % % & & * - 9 % #   O o o X O @ @ $ = $ X # X X O o O $ # O # ",
"; > - * X X * $ * % * 9 * * & * & & & & * * * $ @ o o O % % % % - - ; ; - ; * ; , , ; , , , , & + $ % % * - - - ; ; > # O % * * ",
"{ 6.6.i.> % %.9 9 9 9 3 3 7 e r P ` E K E J 8 E < % z.b.z.d.g.k.d.u.y.y.u.8.8.u.h.h.h.h.h.h.y.x.....x.w.6.2.*.6.p.i.i.q & r } @.",
"> < > { ! > ! * * * * * 9 & - - = = = 9 * & $ - ; - z.' ] L p 1 u < 1 p 8 p 8 < , , , , , 6 6 4., *.y.u , , , , , q r r * > > > ",
"6 , , 6 x : 6 = = : : : - : : - - - : = = % % % % ; w.b S N s , 1 < 8 8 8 8 9 9 , 4 , , u 6 6 ..- *.#., , , , , q , 3 3 3 9 9 > ",
", , , 6 , u : = : = : = - - - = - = & & % % % % $ = ( 4 , < q s 1 9 ; ; ; > > > 4 , , , , , , ..- *.*., , , , , , 3 > 9 3 3 9 > ",
", , , , : : : - = : : = - - = = = & & = & % $ % % O % ; > , , , 1 : > , , , 9 9 , , : : : : : T - s T , , , , , 3 < 9 9 9 9 9 9 ",
"6 6 , 6 - - : - : : : = = = = = = % % = % % % % $ # ; % % % $ = , , , : ; ; 9 , : : : : : : : , % - 6 , , , 3 q < , > 9 > 9 9 9 ",
"6 6 < < : # : - = : = = - = = % = = % % & % % % $ O ! ..T { T $ & , , , , , , : : : : , : : - : % % , , , , , , < < > 9 9 9 < < ",
"6 s q r : # = - : = = = = = = & % % % = % & % $ & o < ! { { ..%.> * , > ; ; ; ; : : - ; ; - : - # % > > > > , , 9 > > < 9 < < < ",
"B { B { : X % = - : : - - - - = & % % % % % $ & * X ; < , z z z ..- % , , > : , > > : ; - ; - < # # > > , , , , 9 9 < 3 3 3 q q ",
"* - > , = o % = % = @ @ + O + $ $ $ $ % % $ $ & % . $ & & * ; ; - - o % - - * = = $ $ $ + + + - * # - * * - * * % $ * * * > > * ",
"% # % # # # # # @ + + + O O o . . + $ % % * * O O X # $ $ - & & % $ % $ # X     X o o # O O + $ # O # o % % % = $ $ % & % % & * ",
"6.6.r.h.h.v.v.v.v.v.v.v.r.r.>.. $.n.x.v.h.h.4...} } } } ..{ , 4.>.h.h.h.v.x # 6 , - - * - : , , D Y % % b.d.d.w.6.6.8.8.p.p.6.2.",
"T s T Q ........[ [ [ [ [ [ w.& >.b.[ 6 x 6 B { { } } %.4.- O.4.....T Y l.h.- Y D = - - = % = % % D % - l.u a a q r r E S S J r ",
"s 6 6 , 6 u u x a S S U [ U ;.9 >...- , B u B { { } %.4.; q p.! ! ..S S #.h.- u , = - = = = = % # & = : w.: S S r R ` ` [ S N p ",
"a a a u u u u u 9 b b S [ Y *., 4...; , 6 x x { } } O.z - g.:.:.....[ S b w., , , = - - = = = = % # # : .., b b b S S [ S S b u ",
"a a S u 6 , 6 , 4 4 9 S U Y  ., *.D - : , 4 4 Y ! } %.r - l.] ' ] ] [ a S ] , : - = - = = = = % # # # * a : , b S b b a b b 4 b ",
"a b b u u 4 , 6 4 u a a S U  .; ..{ ; : , , , u N } ] L = r.' [ S [ S a a U = = = = = & & = % @ $ O $ % , - : - [ [ a b S a u u ",
"b b u u 4 - 6 4 , u u a S S { * h h - : , , 4 4 u S ! ! % N ' S [ [ S u a , $ & = % % & $ % @ @ $ # % % : - = % - [ U S S S u u ",
"b a a a u u x , s s s N S S N % 9 7 ; ; ; 9 1 7 1 e 8 8 & > ] [ L [ p < 9 : + = = & @ & & @ % $ $ $ $ @ : - = % $ $ & u S a a a ",
"a a a , u u u 6 s T S N N s - $ 9 r r 1 9 1 7 7 7 e 1 1 * r L p 1 1 9 ; : p O : ; * * @ @ & @ $ % % % O - : - = * & $ $ S u a u ",
": : : : , , 6 u , , , < N - $ $ * ` 9 * % - * - * - * - * ; ; * % & * & - < o 1 e & & @ % % $ + + + % O $ = * = % $ & $ - , : : ",
"@ + # + # o o o O X O + $ X X . + o o o o o o o o o o o o + o o + O O O o O o O o o o o O O O O . O X . O O O O + + $ $ + % % $ ",
"D , u S ..w.y.D . S :...< , ; % * % 9 9 9 7 r ` E J r %.{ % r j.r.l.4.<.[ S [ a 9 P E E T ! S o $.w.#...[ ........ .....$.*.Y Y ",
"u u u S ..>.b.v.; b.b.] ( ! ( ! r 7 2 7 r %.8.r ` @.%.i.z.> R n.4...! S U U [ [ [ [ ] ] ....( = h.<., [  .[ [ [ Y u 6 , : : , u ",
"u u S S D u >.>.> y.;.a S u < < 1 2 1 1 7 e 1 1 e 1 1 ; i.; { i.; 1 < u S U [ [ U [ [ [ s u q = r., ; , S [ u u u D , , , : , u ",
", u S S S S >.*.; d.:.S [ S < , 9 9 1 9 9 1 9 9 e 1 9 1 9.> %.k.> < u S S S [ [ [ [ [ U S N , $ 4.4 , , 4 S S u u u 6 , , , , , ",
", q , S [ S ] ] - 4.;.U U a : : > ; < 9 - ; 9 9 9 r 1 9 %.> X.p.; < e e L P [ P U [ [ S a a > % k 9 ; 9 ; 9 9 1 4 4 9 9 9 ; , , ",
"u , , u S [ ] S * } ] S a : : a < r e ; - ; ; 9 9 1 r < { > r R ; < 1 r S P P [ U L [ S a 1 - $ 1 ; ; 9 ; ; ; ; , , < 9 ; 9 , < ",
", , , < S ( [ , $ { ( 9 a : , a 9 > * - ; ; 9 ; 9 9 r q R > 9 r - < 9 1 S S P [ L L J 1 , < - O = = 9 = ; ; ; 9 : > , : ; , , 1 ",
", q < N S S ( ! # { { , , : , : $ $ * - - ; ; 9 9 9 r R { > ; 9 * < 9 1 1 S S P N N < 9 , , * o & = = - = = ; ; : - : : : > , , ",
"< < N R z ! T ! o z } ; : : , @ % * * * - 9 9 1 9 e r 9 7 ; % 9 - 9 2 7 K E E E N 8 < < 1 < * o = e ; ; ; ; - ; ; ; > , , ; ; > ",
"# # O O # O X O X % % $ @ @ + o # % % % % % $ + o o o o o o o o + + + $ @ @ @ & * & & $ o + + . o % % + O O O $ + $ & & % + $ + ",
", , , $ . s T q N q s s s s 9 b r r r r 9 9 7 > $ 9 ; * * * * * * - * - - & & - - * # o < e e r e J 7 E J N R # & r N r r , , > ",
"z N ! z , v.%.{ } ! T T z S S ] { X.X.X.{ r ^ { ; r ; ; ; ; ; ; ; ; ; ; ; ; ; ; > , > < z.1.@.@.` ` %.%.@.%.%.% 8.k.} } } ] ! R "
};
